<svg width="207" height="32" viewBox="0 0 207 32" fill="none" xmlns="http://www.w3.org/2000/svg">
<g clip-path="url(#clip0_4585_103)">
<path d="M9.85278 17.4267L12.9347 14.3447H9.85278V17.4267Z" fill="url(#paint0_linear_4585_103)"/>
<path d="M4.2571 11.5859H0C0.200828 12.3578 0.804966 12.9619 1.57683 13.1628V12.1377H2.68028V13.1628C3.45214 12.9619 4.05628 12.3578 4.2571 11.5859Z" fill="url(#paint1_linear_4585_103)"/>
<path d="M3.23193 18.5302L5.21042 16.5518H3.23193V18.5302Z" fill="url(#paint2_linear_4585_103)"/>
<path d="M8.74922 26.6696V20.7783L6.17212 23.724L8.74922 26.6696Z" fill="url(#paint3_linear_4585_103)"/>
<path d="M15.9216 0C14.2846 0 12.9252 1.19559 12.6609 2.75862H19.1817C18.918 1.19559 17.5585 0 15.9216 0Z" fill="url(#paint4_linear_4585_103)"/>
<path d="M17.2734 7.51074C16.8469 7.64812 16.3934 7.72426 15.9217 7.72426C15.45 7.72426 14.9964 7.64812 14.57 7.51074L12.8066 13.2415H19.0373L17.2734 7.51074Z" fill="url(#paint5_linear_4585_103)"/>
<path d="M31.8433 10.4823C31.5967 9.5328 30.7398 8.82715 29.7147 8.82715C28.6896 8.82715 27.8328 9.5328 27.5862 10.4823H31.8433Z" fill="url(#paint6_linear_4585_103)"/>
<path d="M3.23193 20.0905V30.8966H8.74917V28.3449L4.70559 23.7242L8.74917 19.1035V16.5518H6.77069L3.23193 20.0905Z" fill="url(#paint7_linear_4585_103)"/>
<path d="M15.3699 6.57127V4.96575H16.4733V6.57127C17.8565 6.33789 18.9483 5.24548 19.1823 3.8623H12.6609C12.8948 5.24548 13.9867 6.33734 15.3699 6.57127Z" fill="url(#paint8_linear_4585_103)"/>
<path d="M2.12855 8.82715C1.10345 8.82715 0.246621 9.5328 0 10.4823H4.2571C4.01048 9.5328 3.15366 8.82715 2.12855 8.82715Z" fill="url(#paint9_linear_4585_103)"/>
<path d="M28.6113 30.8965V28.918L26.6328 30.8965H28.6113Z" fill="url(#paint10_linear_4585_103)"/>
<path d="M26.4043 21.651C26.4043 20.6645 25.6016 19.8623 24.6151 19.8623C24.1373 19.8623 23.6882 20.0482 23.35 20.3864L23.094 20.6424V25.7023L25.8802 22.9155C26.2184 22.5784 26.4043 22.1293 26.4043 21.651Z" fill="url(#paint11_linear_4585_103)"/>
<path d="M23.094 19.1989C23.5475 18.9164 24.0683 18.7587 24.6151 18.7587C26.2101 18.7587 27.5078 20.0563 27.5078 21.6508C27.5078 22.4238 27.2071 23.1504 26.6603 23.6966L23.094 27.2629V30.8966H25.0725L28.6112 27.3578V16.5518H23.094V19.1989Z" fill="url(#paint12_linear_4585_103)"/>
<path d="M27.9729 8.22547C26.6829 6.86713 24.8645 6.06934 22.9776 6.06934C22.0275 6.06934 21.1155 6.25692 20.2537 6.62603L18.3999 7.42051L20.1908 13.2417H21.0714C22.156 10.7535 24.5163 9.06851 27.2286 8.85554C27.4443 8.61058 27.6942 8.39816 27.9729 8.22547Z" fill="url(#paint13_linear_4585_103)"/>
<path d="M29.163 13.1628V12.1377H30.2665V13.1628C31.0383 12.9619 31.6425 12.3578 31.8433 11.5859H27.5862C27.787 12.3578 28.3911 12.9619 29.163 13.1628Z" fill="url(#paint14_linear_4585_103)"/>
<path d="M11.6524 13.2417L13.4433 7.42051L11.5895 6.62603C10.7277 6.25692 9.81574 6.06934 8.87836 6.06934C6.97988 6.06934 5.16029 6.86713 3.87036 8.22547C4.14843 8.39872 4.39891 8.61058 4.61409 8.85609C7.32691 9.06906 9.68664 10.754 10.7713 13.2423L11.6524 13.2417Z" fill="url(#paint15_linear_4585_103)"/>
<path d="M18.9092 21.7811L18.3741 21.4247C17.4334 20.7974 16.6113 20.0338 15.9216 19.1494C15.232 20.0344 14.4094 20.7974 13.4692 21.4247L12.9341 21.7811C12.3862 22.1464 12.0596 22.7571 12.0596 23.4153C12.0596 24.4984 12.9407 25.3795 14.0237 25.3795C14.4585 25.3795 14.8938 25.2763 15.2822 25.0821L15.9216 24.7627L16.5611 25.0821C16.9501 25.2758 17.3854 25.3789 17.8196 25.3789C18.9026 25.3789 19.7837 24.4978 19.7837 23.4148C19.7837 22.7566 19.4571 22.1464 18.9092 21.7811Z" fill="url(#paint16_linear_4585_103)"/>
<path d="M18.9087 32.0005H21.9912V28.918L18.9087 32.0005Z" fill="url(#paint17_linear_4585_103)"/>
<path d="M21.9907 14.3447H14.495L9.85278 18.9869V31.9999H17.3485L21.9913 27.3571L21.9907 14.3447ZM17.8197 26.4827C17.3617 26.4827 16.9038 26.3999 16.4735 26.2427V28.6896H15.37V26.2427C14.9397 26.3999 14.4817 26.4827 14.0238 26.4827C12.3328 26.4827 10.9562 25.1067 10.9562 23.4151C10.9562 22.3872 11.4666 21.4327 12.3223 20.8628L12.8575 20.5064C13.8947 19.8145 14.7714 18.9378 15.4633 17.9006L15.9223 17.212L16.3813 17.9006C17.0726 18.9378 17.9493 19.8145 18.9871 20.5064L19.5223 20.8628C20.3775 21.4327 20.8884 22.3872 20.8884 23.4151C20.8873 25.1067 19.5113 26.4827 17.8197 26.4827Z" fill="url(#paint18_linear_4585_103)"/>
</g>
<path d="M40.6094 20.9531L49.5273 9.78516H40.832V6.72656H54.0273V9.62109L44.9922 20.9531H54.0508V24H40.6094V20.9531ZM61.9609 21.6445C62.9375 21.6445 63.6875 21.2969 64.2109 20.6016C64.7344 19.9062 64.9961 18.918 64.9961 17.6367C64.9961 16.3555 64.7344 15.3711 64.2109 14.6836C63.6875 13.9883 62.9375 13.6406 61.9609 13.6406C60.9844 13.6406 60.2305 13.9883 59.6992 14.6836C59.1758 15.3711 58.9141 16.3555 58.9141 17.6367C58.9141 18.918 59.1758 19.9062 59.6992 20.6016C60.2305 21.2969 60.9844 21.6445 61.9609 21.6445ZM68.5 17.6367C68.5 19.5117 67.9609 21.1172 66.8828 22.4531C65.8047 23.7812 64.168 24.4453 61.9727 24.4453C59.7773 24.4453 58.1406 23.7812 57.0625 22.4531C55.9844 21.1172 55.4453 19.5117 55.4453 17.6367C55.4453 15.793 55.9844 14.1953 57.0625 12.8438C58.1406 11.4922 59.7773 10.8164 61.9727 10.8164C64.168 10.8164 65.8047 11.4922 66.8828 12.8438C67.9609 14.1953 68.5 15.793 68.5 17.6367ZM78.5312 15.8086C78.4688 15.332 78.3086 14.9023 78.0508 14.5195C77.6758 14.0039 77.0938 13.7461 76.3047 13.7461C75.1797 13.7461 74.4102 14.3047 73.9961 15.4219C73.7773 16.0156 73.668 16.8047 73.668 17.7891C73.668 18.7266 73.7773 19.4805 73.9961 20.0508C74.3945 21.1133 75.1445 21.6445 76.2461 21.6445C77.0273 21.6445 77.582 21.4336 77.9102 21.0117C78.2383 20.5898 78.4375 20.043 78.5078 19.3711H81.918C81.8398 20.3867 81.4727 21.3477 80.8164 22.2539C79.7695 23.7148 78.2188 24.4453 76.1641 24.4453C74.1094 24.4453 72.5977 23.8359 71.6289 22.6172C70.6602 21.3984 70.1758 19.8164 70.1758 17.8711C70.1758 15.6758 70.7109 13.9688 71.7812 12.75C72.8516 11.5312 74.3281 10.9219 76.2109 10.9219C77.8125 10.9219 79.1211 11.2812 80.1367 12C81.1602 12.7188 81.7656 13.9883 81.9531 15.8086H78.5312ZM84.2266 6.78516H87.5078V16.0898L91.668 11.2852H95.8047L91.3398 16.1719L95.9805 24H91.9492L88.8906 18.5391L87.5078 19.9805V24H84.2266V6.78516ZM102.66 13.6406C101.887 13.6406 101.285 13.8828 100.855 14.3672C100.434 14.8516 100.168 15.5078 100.059 16.3359H105.25C105.195 15.4531 104.926 14.7852 104.441 14.332C103.965 13.8711 103.371 13.6406 102.66 13.6406ZM102.66 10.8867C103.723 10.8867 104.68 11.0859 105.531 11.4844C106.383 11.8828 107.086 12.5117 107.641 13.3711C108.141 14.1289 108.465 15.0078 108.613 16.0078C108.699 16.5938 108.734 17.4375 108.719 18.5391H99.9766C100.023 19.8203 100.426 20.7188 101.184 21.2344C101.645 21.5547 102.199 21.7148 102.848 21.7148C103.535 21.7148 104.094 21.5195 104.523 21.1289C104.758 20.918 104.965 20.625 105.145 20.25H108.555C108.469 21.0078 108.074 21.7773 107.371 22.5586C106.277 23.8008 104.746 24.4219 102.777 24.4219C101.152 24.4219 99.7188 23.8984 98.4766 22.8516C97.2344 21.8047 96.6133 20.1016 96.6133 17.7422C96.6133 15.5312 97.1719 13.8359 98.2891 12.6562C99.4141 11.4766 100.871 10.8867 102.66 10.8867ZM117.918 10.9219C117.98 10.9219 118.031 10.9258 118.07 10.9336C118.117 10.9336 118.215 10.9375 118.363 10.9453V14.3672C118.152 14.3438 117.965 14.3281 117.801 14.3203C117.637 14.3125 117.504 14.3086 117.402 14.3086C116.059 14.3086 115.156 14.7461 114.695 15.6211C114.438 16.1133 114.309 16.8711 114.309 17.8945V24H110.945V11.2266H114.133V13.4531C114.648 12.6016 115.098 12.0195 115.48 11.707C116.105 11.1836 116.918 10.9219 117.918 10.9219ZM126.355 11.2266H129.742L131.688 20.4258L133.68 11.2266H137.16L133.457 24H130.023L128.02 14.6953L125.992 24H122.523L118.938 11.2266H122.523L124.516 20.3906L126.355 11.2266ZM144.051 13.6406C143.277 13.6406 142.676 13.8828 142.246 14.3672C141.824 14.8516 141.559 15.5078 141.449 16.3359H146.641C146.586 15.4531 146.316 14.7852 145.832 14.332C145.355 13.8711 144.762 13.6406 144.051 13.6406ZM144.051 10.8867C145.113 10.8867 146.07 11.0859 146.922 11.4844C147.773 11.8828 148.477 12.5117 149.031 13.3711C149.531 14.1289 149.855 15.0078 150.004 16.0078C150.09 16.5938 150.125 17.4375 150.109 18.5391H141.367C141.414 19.8203 141.816 20.7188 142.574 21.2344C143.035 21.5547 143.59 21.7148 144.238 21.7148C144.926 21.7148 145.484 21.5195 145.914 21.1289C146.148 20.918 146.355 20.625 146.535 20.25H149.945C149.859 21.0078 149.465 21.7773 148.762 22.5586C147.668 23.8008 146.137 24.4219 144.168 24.4219C142.543 24.4219 141.109 23.8984 139.867 22.8516C138.625 21.8047 138.004 20.1016 138.004 17.7422C138.004 15.5312 138.562 13.8359 139.68 12.6562C140.805 11.4766 142.262 10.8867 144.051 10.8867ZM155.781 24H152.441V6.72656H155.781V24ZM157.738 13.7227V11.3438H159.52V7.78125H162.824V11.3438H164.898V13.7227H162.824V20.4727C162.824 20.9961 162.891 21.3242 163.023 21.457C163.156 21.582 163.562 21.6445 164.242 21.6445C164.344 21.6445 164.449 21.6445 164.559 21.6445C164.676 21.6367 164.789 21.6289 164.898 21.6211V24.1172L163.316 24.1758C161.738 24.2305 160.66 23.957 160.082 23.3555C159.707 22.9727 159.52 22.3828 159.52 21.5859V13.7227H157.738ZM166.035 15.7266H172.762V18.8906H166.035V15.7266ZM178.809 9.72656V21H182.137C183.84 21 185.027 20.1602 185.699 18.4805C186.066 17.5586 186.25 16.4609 186.25 15.1875C186.25 13.4297 185.973 12.082 185.418 11.1445C184.871 10.1992 183.777 9.72656 182.137 9.72656H178.809ZM182.746 6.72656C183.816 6.74219 184.707 6.86719 185.418 7.10156C186.629 7.5 187.609 8.23047 188.359 9.29297C188.961 10.1523 189.371 11.082 189.59 12.082C189.809 13.082 189.918 14.0352 189.918 14.9414C189.918 17.2383 189.457 19.1836 188.535 20.7773C187.285 22.9258 185.355 24 182.746 24H175.305V6.72656H182.746ZM205.422 9.78516H196.281V13.4531H204.672V16.4531H196.281V20.8945H205.844V24H192.754V6.72656H205.422V9.78516Z" fill="white"/>
<defs>
<linearGradient id="paint0_linear_4585_103" x1="9.72374" y1="13.8632" x2="13.1555" y2="18.0532" gradientUnits="userSpaceOnUse">
<stop stop-color="#00FFFF"/>
<stop offset="1" stop-color="#FF00C3"/>
</linearGradient>
<linearGradient id="paint1_linear_4585_103" x1="-0.178252" y1="11.3396" x2="0.816807" y2="14.6195" gradientUnits="userSpaceOnUse">
<stop stop-color="#00FFFF"/>
<stop offset="1" stop-color="#FF00C3"/>
</linearGradient>
<linearGradient id="paint2_linear_4585_103" x1="3.14909" y1="16.2426" x2="5.35217" y2="18.9324" gradientUnits="userSpaceOnUse">
<stop stop-color="#00FFFF"/>
<stop offset="1" stop-color="#FF00C3"/>
</linearGradient>
<linearGradient id="paint3_linear_4585_103" x1="6.06421" y1="19.8578" x2="11.6253" y2="22.8279" gradientUnits="userSpaceOnUse">
<stop stop-color="#00FFFF"/>
<stop offset="1" stop-color="#FF00C3"/>
</linearGradient>
<linearGradient id="paint4_linear_4585_103" x1="12.3879" y1="-0.431034" x2="14.3264" y2="5.16363" gradientUnits="userSpaceOnUse">
<stop stop-color="#00FFFF"/>
<stop offset="1" stop-color="#FF00C3"/>
</linearGradient>
<linearGradient id="paint5_linear_4585_103" x1="12.5458" y1="6.61531" x2="18.802" y2="14.92" gradientUnits="userSpaceOnUse">
<stop stop-color="#00FFFF"/>
<stop offset="1" stop-color="#FF00C3"/>
</linearGradient>
<linearGradient id="paint6_linear_4585_103" x1="27.4079" y1="8.56853" x2="28.495" y2="11.9822" gradientUnits="userSpaceOnUse">
<stop stop-color="#00FFFF"/>
<stop offset="1" stop-color="#FF00C3"/>
</linearGradient>
<linearGradient id="paint7_linear_4585_103" x1="3.00092" y1="14.3104" x2="15.5379" y2="20.1976" gradientUnits="userSpaceOnUse">
<stop stop-color="#00FFFF"/>
<stop offset="1" stop-color="#FF00C3"/>
</linearGradient>
<linearGradient id="paint8_linear_4585_103" x1="12.3878" y1="3.43903" x2="14.2642" y2="8.95418" gradientUnits="userSpaceOnUse">
<stop stop-color="#00FFFF"/>
<stop offset="1" stop-color="#FF00C3"/>
</linearGradient>
<linearGradient id="paint9_linear_4585_103" x1="-0.178252" y1="8.56853" x2="0.908813" y2="11.9822" gradientUnits="userSpaceOnUse">
<stop stop-color="#00FFFF"/>
<stop offset="1" stop-color="#FF00C3"/>
</linearGradient>
<linearGradient id="paint10_linear_4585_103" x1="26.55" y1="28.6088" x2="28.753" y2="31.2986" gradientUnits="userSpaceOnUse">
<stop stop-color="#00FFFF"/>
<stop offset="1" stop-color="#FF00C3"/>
</linearGradient>
<linearGradient id="paint11_linear_4585_103" x1="22.9554" y1="18.9498" x2="29.1631" y2="23.246" gradientUnits="userSpaceOnUse">
<stop stop-color="#00FFFF"/>
<stop offset="1" stop-color="#FF00C3"/>
</linearGradient>
<linearGradient id="paint12_linear_4585_103" x1="22.863" y1="14.3104" x2="35.4" y2="20.1976" gradientUnits="userSpaceOnUse">
<stop stop-color="#00FFFF"/>
<stop offset="1" stop-color="#FF00C3"/>
</linearGradient>
<linearGradient id="paint13_linear_4585_103" x1="17.9991" y1="4.94865" x2="25.262" y2="16.7842" gradientUnits="userSpaceOnUse">
<stop stop-color="#00FFFF"/>
<stop offset="1" stop-color="#FF00C3"/>
</linearGradient>
<linearGradient id="paint14_linear_4585_103" x1="27.4079" y1="11.3396" x2="28.403" y2="14.6195" gradientUnits="userSpaceOnUse">
<stop stop-color="#00FFFF"/>
<stop offset="1" stop-color="#FF00C3"/>
</linearGradient>
<linearGradient id="paint15_linear_4585_103" x1="3.46952" y1="4.94856" x2="10.7333" y2="16.7845" gradientUnits="userSpaceOnUse">
<stop stop-color="#00FFFF"/>
<stop offset="1" stop-color="#FF00C3"/>
</linearGradient>
<linearGradient id="paint16_linear_4585_103" x1="11.7361" y1="18.176" x2="18.2447" y2="28.0282" gradientUnits="userSpaceOnUse">
<stop stop-color="#00FFFF"/>
<stop offset="1" stop-color="#FF00C3"/>
</linearGradient>
<linearGradient id="paint17_linear_4585_103" x1="18.7796" y1="28.4363" x2="22.212" y2="32.6271" gradientUnits="userSpaceOnUse">
<stop stop-color="#00FFFF"/>
<stop offset="1" stop-color="#FF00C3"/>
</linearGradient>
<linearGradient id="paint18_linear_4585_103" x1="9.34452" y1="11.5861" x2="29.0936" y2="28.164" gradientUnits="userSpaceOnUse">
<stop stop-color="#00FFFF"/>
<stop offset="1" stop-color="#FF00C3"/>
</linearGradient>
<clipPath id="clip0_4585_103">
<rect width="32" height="32" fill="white"/>
</clipPath>
</defs>
</svg>
