<svg width="32" height="32" viewBox="0 0 32 32" fill="none" xmlns="http://www.w3.org/2000/svg">
<g clip-path="url(#clip0_4585_104)">
<path d="M9.85278 17.4276L12.9347 14.3457H9.85278V17.4276Z" fill="url(#paint0_linear_4585_104)"/>
<path d="M4.2571 11.5859H0C0.200828 12.3578 0.804966 12.9619 1.57683 13.1628V12.1377H2.68028V13.1628C3.45214 12.9619 4.05628 12.3578 4.2571 11.5859Z" fill="url(#paint1_linear_4585_104)"/>
<path d="M3.23193 18.5293L5.21042 16.5508H3.23193V18.5293Z" fill="url(#paint2_linear_4585_104)"/>
<path d="M8.74922 26.6706V20.7793L6.17212 23.725L8.74922 26.6706Z" fill="url(#paint3_linear_4585_104)"/>
<path d="M15.9216 0C14.2846 0 12.9252 1.19559 12.6609 2.75862H19.1817C18.918 1.19559 17.5585 0 15.9216 0Z" fill="url(#paint4_linear_4585_104)"/>
<path d="M17.2734 7.51172C16.8469 7.6491 16.3934 7.72524 15.9217 7.72524C15.45 7.72524 14.9964 7.6491 14.57 7.51172L12.8066 13.2425H19.0373L17.2734 7.51172Z" fill="url(#paint5_linear_4585_104)"/>
<path d="M31.8433 10.4833C31.5967 9.53378 30.7398 8.82812 29.7147 8.82812C28.6896 8.82812 27.8328 9.53378 27.5862 10.4833H31.8433Z" fill="url(#paint6_linear_4585_104)"/>
<path d="M3.23193 20.0895V30.8956H8.74917V28.3439L4.70559 23.7232L8.74917 19.1025V16.5508H6.77069L3.23193 20.0895Z" fill="url(#paint7_linear_4585_104)"/>
<path d="M15.3699 6.57029V4.96478H16.4733V6.57029C17.8565 6.33691 18.9483 5.2445 19.1823 3.86133H12.6609C12.8948 5.2445 13.9867 6.33636 15.3699 6.57029Z" fill="url(#paint8_linear_4585_104)"/>
<path d="M2.12855 8.82812C1.10345 8.82812 0.246621 9.53378 0 10.4833H4.2571C4.01048 9.53378 3.15366 8.82812 2.12855 8.82812Z" fill="url(#paint9_linear_4585_104)"/>
<path d="M28.6113 30.8965V28.918L26.6328 30.8965H28.6113Z" fill="url(#paint10_linear_4585_104)"/>
<path d="M26.4043 21.65C26.4043 20.6635 25.6016 19.8613 24.6151 19.8613C24.1373 19.8613 23.6882 20.0473 23.35 20.3855L23.094 20.6415V25.7013L25.8802 22.9146C26.2184 22.5775 26.4043 22.1284 26.4043 21.65Z" fill="url(#paint11_linear_4585_104)"/>
<path d="M23.094 19.198C23.5475 18.9155 24.0683 18.7577 24.6151 18.7577C26.2101 18.7577 27.5078 20.0553 27.5078 21.6498C27.5078 22.4228 27.2071 23.1494 26.6603 23.6956L23.094 27.262V30.8956H25.0725L28.6112 27.3568V16.5508H23.094V19.198Z" fill="url(#paint12_linear_4585_104)"/>
<path d="M27.9729 8.2245C26.6829 6.86615 24.8645 6.06836 22.9776 6.06836C22.0275 6.06836 21.1155 6.25595 20.2537 6.62505L18.3999 7.41953L20.1908 13.2408H21.0714C22.156 10.7525 24.5163 9.06753 27.2286 8.85457C27.4443 8.6096 27.6942 8.39719 27.9729 8.2245Z" fill="url(#paint13_linear_4585_104)"/>
<path d="M29.163 13.1628V12.1377H30.2665V13.1628C31.0383 12.9619 31.6425 12.3578 31.8433 11.5859H27.5862C27.787 12.3578 28.3911 12.9619 29.163 13.1628Z" fill="url(#paint14_linear_4585_104)"/>
<path d="M11.6524 13.2408L13.4433 7.41953L11.5895 6.62505C10.7277 6.25595 9.81574 6.06836 8.87836 6.06836C6.97988 6.06836 5.16029 6.86615 3.87036 8.2245C4.14843 8.39774 4.39891 8.6096 4.61409 8.85512C7.32691 9.06808 9.68664 10.753 10.7713 13.2413L11.6524 13.2408Z" fill="url(#paint15_linear_4585_104)"/>
<path d="M18.9092 21.7821L18.3741 21.4257C17.4334 20.7984 16.6113 20.0348 15.9216 19.1504C15.232 20.0354 14.4094 20.7984 13.4692 21.4257L12.9341 21.7821C12.3862 22.1474 12.0596 22.7581 12.0596 23.4163C12.0596 24.4994 12.9407 25.3805 14.0237 25.3805C14.4585 25.3805 14.8938 25.2773 15.2822 25.0831L15.9216 24.7636L16.5611 25.0831C16.9501 25.2767 17.3854 25.3799 17.8196 25.3799C18.9026 25.3799 19.7837 24.4988 19.7837 23.4158C19.7837 22.7576 19.4571 22.1474 18.9092 21.7821Z" fill="url(#paint16_linear_4585_104)"/>
<path d="M18.9087 32.0005H21.9912V28.918L18.9087 32.0005Z" fill="url(#paint17_linear_4585_104)"/>
<path d="M21.9907 14.3457H14.495L9.85278 18.9879V32.0009H17.3485L21.9913 27.3581L21.9907 14.3457ZM17.8197 26.4836C17.3617 26.4836 16.9038 26.4009 16.4735 26.2436V28.6905H15.37V26.2436C14.9397 26.4009 14.4817 26.4836 14.0238 26.4836C12.3328 26.4836 10.9562 25.1076 10.9562 23.416C10.9562 22.3882 11.4666 21.4337 12.3223 20.8638L12.8575 20.5074C13.8947 19.8155 14.7714 18.9388 15.4633 17.9016L15.9223 17.213L16.3813 17.9016C17.0726 18.9388 17.9493 19.8155 18.9871 20.5074L19.5223 20.8638C20.3775 21.4337 20.8884 22.3882 20.8884 23.416C20.8873 25.1076 19.5113 26.4836 17.8197 26.4836Z" fill="url(#paint18_linear_4585_104)"/>
</g>
<defs>
<linearGradient id="paint0_linear_4585_104" x1="9.72374" y1="13.8642" x2="13.1555" y2="18.0541" gradientUnits="userSpaceOnUse">
<stop stop-color="#00FFFF"/>
<stop offset="1" stop-color="#FF00C3"/>
</linearGradient>
<linearGradient id="paint1_linear_4585_104" x1="-0.178252" y1="11.3396" x2="0.816807" y2="14.6195" gradientUnits="userSpaceOnUse">
<stop stop-color="#00FFFF"/>
<stop offset="1" stop-color="#FF00C3"/>
</linearGradient>
<linearGradient id="paint2_linear_4585_104" x1="3.14909" y1="16.2416" x2="5.35217" y2="18.9315" gradientUnits="userSpaceOnUse">
<stop stop-color="#00FFFF"/>
<stop offset="1" stop-color="#FF00C3"/>
</linearGradient>
<linearGradient id="paint3_linear_4585_104" x1="6.06421" y1="19.8588" x2="11.6253" y2="22.8289" gradientUnits="userSpaceOnUse">
<stop stop-color="#00FFFF"/>
<stop offset="1" stop-color="#FF00C3"/>
</linearGradient>
<linearGradient id="paint4_linear_4585_104" x1="12.3879" y1="-0.431034" x2="14.3264" y2="5.16363" gradientUnits="userSpaceOnUse">
<stop stop-color="#00FFFF"/>
<stop offset="1" stop-color="#FF00C3"/>
</linearGradient>
<linearGradient id="paint5_linear_4585_104" x1="12.5458" y1="6.61629" x2="18.802" y2="14.921" gradientUnits="userSpaceOnUse">
<stop stop-color="#00FFFF"/>
<stop offset="1" stop-color="#FF00C3"/>
</linearGradient>
<linearGradient id="paint6_linear_4585_104" x1="27.4079" y1="8.5695" x2="28.495" y2="11.9831" gradientUnits="userSpaceOnUse">
<stop stop-color="#00FFFF"/>
<stop offset="1" stop-color="#FF00C3"/>
</linearGradient>
<linearGradient id="paint7_linear_4585_104" x1="3.00092" y1="14.3094" x2="15.5379" y2="20.1966" gradientUnits="userSpaceOnUse">
<stop stop-color="#00FFFF"/>
<stop offset="1" stop-color="#FF00C3"/>
</linearGradient>
<linearGradient id="paint8_linear_4585_104" x1="12.3878" y1="3.43805" x2="14.2642" y2="8.9532" gradientUnits="userSpaceOnUse">
<stop stop-color="#00FFFF"/>
<stop offset="1" stop-color="#FF00C3"/>
</linearGradient>
<linearGradient id="paint9_linear_4585_104" x1="-0.178252" y1="8.5695" x2="0.908813" y2="11.9831" gradientUnits="userSpaceOnUse">
<stop stop-color="#00FFFF"/>
<stop offset="1" stop-color="#FF00C3"/>
</linearGradient>
<linearGradient id="paint10_linear_4585_104" x1="26.55" y1="28.6088" x2="28.753" y2="31.2986" gradientUnits="userSpaceOnUse">
<stop stop-color="#00FFFF"/>
<stop offset="1" stop-color="#FF00C3"/>
</linearGradient>
<linearGradient id="paint11_linear_4585_104" x1="22.9554" y1="18.9488" x2="29.1631" y2="23.245" gradientUnits="userSpaceOnUse">
<stop stop-color="#00FFFF"/>
<stop offset="1" stop-color="#FF00C3"/>
</linearGradient>
<linearGradient id="paint12_linear_4585_104" x1="22.863" y1="14.3094" x2="35.4" y2="20.1966" gradientUnits="userSpaceOnUse">
<stop stop-color="#00FFFF"/>
<stop offset="1" stop-color="#FF00C3"/>
</linearGradient>
<linearGradient id="paint13_linear_4585_104" x1="17.9991" y1="4.94767" x2="25.262" y2="16.7832" gradientUnits="userSpaceOnUse">
<stop stop-color="#00FFFF"/>
<stop offset="1" stop-color="#FF00C3"/>
</linearGradient>
<linearGradient id="paint14_linear_4585_104" x1="27.4079" y1="11.3396" x2="28.403" y2="14.6195" gradientUnits="userSpaceOnUse">
<stop stop-color="#00FFFF"/>
<stop offset="1" stop-color="#FF00C3"/>
</linearGradient>
<linearGradient id="paint15_linear_4585_104" x1="3.46952" y1="4.94758" x2="10.7333" y2="16.7835" gradientUnits="userSpaceOnUse">
<stop stop-color="#00FFFF"/>
<stop offset="1" stop-color="#FF00C3"/>
</linearGradient>
<linearGradient id="paint16_linear_4585_104" x1="11.7361" y1="18.1769" x2="18.2447" y2="28.0292" gradientUnits="userSpaceOnUse">
<stop stop-color="#00FFFF"/>
<stop offset="1" stop-color="#FF00C3"/>
</linearGradient>
<linearGradient id="paint17_linear_4585_104" x1="18.7796" y1="28.4363" x2="22.212" y2="32.6271" gradientUnits="userSpaceOnUse">
<stop stop-color="#00FFFF"/>
<stop offset="1" stop-color="#FF00C3"/>
</linearGradient>
<linearGradient id="paint18_linear_4585_104" x1="9.34452" y1="11.5871" x2="29.0936" y2="28.165" gradientUnits="userSpaceOnUse">
<stop stop-color="#00FFFF"/>
<stop offset="1" stop-color="#FF00C3"/>
</linearGradient>
<clipPath id="clip0_4585_104">
<rect width="32" height="32" fill="white"/>
</clipPath>
</defs>
</svg>
