<svg width="62" height="62" viewBox="0 0 62 62" fill="none" xmlns="http://www.w3.org/2000/svg">
<g filter="url(#filter0_ii_3173_195)">
<path fill-rule="evenodd" clip-rule="evenodd" d="M38.9845 21.8802C39.5264 21.3418 39.956 20.7011 40.2483 19.9953C40.5407 19.2895 40.69 18.5327 40.6875 17.7688V11.625C40.6875 10.0834 40.0751 8.605 38.9851 7.51494C37.895 6.42489 36.4166 5.8125 34.875 5.8125H27.125C25.5835 5.8125 24.105 6.42489 23.015 7.51494C21.9249 8.605 21.3125 10.0834 21.3125 11.625V17.7688C21.3101 18.5327 21.4594 19.2895 21.7517 19.9953C22.0441 20.7011 22.4737 21.3418 23.0156 21.8802L26.8906 25.7552C27.9806 26.8449 29.4588 27.457 31 27.457C32.5413 27.457 34.0195 26.8449 35.1095 25.7552L38.9845 21.8802ZM54.485 38.9851C53.395 40.0751 51.9165 40.6875 50.3749 40.6875H44.2311C43.4672 40.69 42.7104 40.5407 42.0047 40.2483C41.2989 39.956 40.6582 39.5264 40.1198 38.9845L36.2448 35.1095C35.1551 34.0195 34.5429 32.5413 34.5429 31C34.5429 29.4588 35.1551 27.9806 36.2448 26.8906L40.1198 23.0156C40.6582 22.4737 41.2989 22.0441 42.0047 21.7517C42.7104 21.4594 43.4672 21.3101 44.2311 21.3125H50.3749C51.9165 21.3125 53.395 21.9249 54.485 23.015C55.5751 24.105 56.1874 25.5835 56.1874 27.125V34.875C56.1874 36.4166 55.5751 37.895 54.485 38.9851ZM21.7517 42.0062C22.0441 41.3005 22.4737 40.6598 23.0156 40.1213L26.8906 36.2463C27.9806 35.1567 29.4588 34.5445 31 34.5445C32.5413 34.5445 34.0195 35.1567 35.1095 36.2463L38.9845 40.1213C39.5264 40.6598 39.956 41.3005 40.2483 42.0062C40.5407 42.712 40.69 43.4688 40.6875 44.2327V50.3765C40.6875 51.9181 40.0751 53.3965 38.9851 54.4866C37.895 55.5766 36.4166 56.189 34.875 56.189H27.125C25.5835 56.189 24.105 55.5766 23.015 54.4866C21.9249 53.3965 21.3125 51.9181 21.3125 50.3765V44.2327C21.3101 43.4688 21.4594 42.712 21.7517 42.0062ZM17.7688 40.6875H11.625C10.0834 40.6875 8.605 40.0751 7.51494 38.9851C6.42489 37.895 5.8125 36.4166 5.8125 34.875V27.125C5.8125 25.5835 6.42489 24.105 7.51494 23.015C8.605 21.9249 10.0834 21.3125 11.625 21.3125H17.7688C18.5327 21.3101 19.2895 21.4594 19.9953 21.7517C20.7011 22.0441 21.3418 22.4737 21.8802 23.0156L25.7552 26.8906C26.8449 27.9806 27.457 29.4588 27.457 31C27.457 32.5413 26.8449 34.0195 25.7552 35.1095L21.8802 38.9845C21.3418 39.5264 20.7011 39.956 19.9953 40.2483C19.2895 40.5407 18.5327 40.69 17.7688 40.6875Z" fill="url(#paint0_linear_3173_195)"/>
</g>
<defs>
<filter id="filter0_ii_3173_195" x="3.8125" y="3.8125" width="54.375" height="54.377" filterUnits="userSpaceOnUse" color-interpolation-filters="sRGB">
<feFlood flood-opacity="0" result="BackgroundImageFix"/>
<feBlend mode="normal" in="SourceGraphic" in2="BackgroundImageFix" result="shape"/>
<feColorMatrix in="SourceAlpha" type="matrix" values="0 0 0 0 0 0 0 0 0 0 0 0 0 0 0 0 0 0 127 0" result="hardAlpha"/>
<feOffset dx="2" dy="2"/>
<feGaussianBlur stdDeviation="2"/>
<feComposite in2="hardAlpha" operator="arithmetic" k2="-1" k3="1"/>
<feColorMatrix type="matrix" values="0 0 0 0 1 0 0 0 0 1 0 0 0 0 1 0 0 0 0.4 0"/>
<feBlend mode="normal" in2="shape" result="effect1_innerShadow_3173_195"/>
<feColorMatrix in="SourceAlpha" type="matrix" values="0 0 0 0 0 0 0 0 0 0 0 0 0 0 0 0 0 0 127 0" result="hardAlpha"/>
<feOffset dx="-2" dy="-2"/>
<feGaussianBlur stdDeviation="1"/>
<feComposite in2="hardAlpha" operator="arithmetic" k2="-1" k3="1"/>
<feColorMatrix type="matrix" values="0 0 0 0 0 0 0 0 0 0 0 0 0 0 0 0 0 0 0.4 0"/>
<feBlend mode="normal" in2="effect1_innerShadow_3173_195" result="effect2_innerShadow_3173_195"/>
</filter>
<linearGradient id="paint0_linear_3173_195" x1="-1.9375" y1="-4.52083" x2="65.875" y2="65.875" gradientUnits="userSpaceOnUse">
<stop offset="0.163596" stop-color="#BD00FF"/>
<stop offset="1" stop-color="#00E0FF"/>
</linearGradient>
</defs>
</svg>
