<svg width="48" height="48" viewBox="0 0 48 48" fill="none" xmlns="http://www.w3.org/2000/svg">
<mask id="path-1-inside-1_617_46" fill="white">
<path d="M28.8495 0.495062C24.2007 -0.464083 19.3718 -0.0231491 14.9736 1.76211C10.5754 3.54736 6.80527 6.59676 4.1401 10.5247C1.47493 14.4526 0.0343802 19.0826 0.000607472 23.8292C-0.0331653 28.5759 1.34136 33.2259 3.95037 37.1914C6.55937 41.1568 10.2857 44.2595 14.6581 46.1072C19.0305 47.9549 23.8526 48.4645 28.5146 47.5716C33.1766 46.6787 37.4691 44.4234 40.8494 41.0909C44.2296 37.7584 46.5458 33.4984 47.5049 28.8495L40.8087 27.468C40.1228 30.7924 38.4665 33.8388 36.0492 36.2219C33.632 38.605 30.5623 40.2178 27.2284 40.8564C23.8946 41.4949 20.4462 41.1305 17.3195 39.8092C14.1927 38.4879 11.528 36.2691 9.66223 33.4333C7.79649 30.5976 6.81355 27.2723 6.8377 23.8779C6.86185 20.4835 7.89201 17.1725 9.79791 14.3636C11.7038 11.5547 14.3998 9.37403 17.5451 8.09737C20.6903 6.82071 24.1435 6.50539 27.468 7.19129L28.8495 0.495062Z"/>
</mask>
<path d="M28.8495 0.495062C24.2007 -0.464083 19.3718 -0.0231491 14.9736 1.76211C10.5754 3.54736 6.80527 6.59676 4.1401 10.5247C1.47493 14.4526 0.0343802 19.0826 0.000607472 23.8292C-0.0331653 28.5759 1.34136 33.2259 3.95037 37.1914C6.55937 41.1568 10.2857 44.2595 14.6581 46.1072C19.0305 47.9549 23.8526 48.4645 28.5146 47.5716C33.1766 46.6787 37.4691 44.4234 40.8494 41.0909C44.2296 37.7584 46.5458 33.4984 47.5049 28.8495L40.8087 27.468C40.1228 30.7924 38.4665 33.8388 36.0492 36.2219C33.632 38.605 30.5623 40.2178 27.2284 40.8564C23.8946 41.4949 20.4462 41.1305 17.3195 39.8092C14.1927 38.4879 11.528 36.2691 9.66223 33.4333C7.79649 30.5976 6.81355 27.2723 6.8377 23.8779C6.86185 20.4835 7.89201 17.1725 9.79791 14.3636C11.7038 11.5547 14.3998 9.37403 17.5451 8.09737C20.6903 6.82071 24.1435 6.50539 27.468 7.19129L28.8495 0.495062Z" fill="black" stroke="black" stroke-width="6" mask="url(#path-1-inside-1_617_46)"/>
<path d="M20.1641 16.7812V31H16.873V20.4922L13.6309 21.4395V18.9395L19.8613 16.7812H20.1641ZM34.3535 27.084C34.3535 27.9889 34.1387 28.7474 33.709 29.3594C33.2858 29.9714 32.6999 30.4303 31.9512 30.7363C31.209 31.0423 30.3626 31.1953 29.4121 31.1953C28.4681 31.1953 27.6185 31.0423 26.8633 30.7363C26.1146 30.4303 25.5221 29.9714 25.0859 29.3594C24.6497 28.7474 24.4316 27.9889 24.4316 27.084C24.4316 26.4655 24.5553 25.9121 24.8027 25.4238C25.0566 24.929 25.4082 24.5091 25.8574 24.1641C26.3066 23.819 26.8307 23.5553 27.4297 23.373C28.0352 23.1908 28.6895 23.0996 29.3926 23.0996C30.3431 23.0996 31.1927 23.2624 31.9414 23.5879C32.6901 23.9069 33.2793 24.3626 33.709 24.9551C34.1387 25.5475 34.3535 26.2572 34.3535 27.084ZM31.043 26.8203C31.043 26.4297 30.9746 26.1009 30.8379 25.834C30.7012 25.5605 30.5091 25.3522 30.2617 25.209C30.0143 25.0658 29.7246 24.9941 29.3926 24.9941C29.0671 24.9941 28.7773 25.0658 28.5234 25.209C28.276 25.3522 28.0807 25.5605 27.9375 25.834C27.8008 26.1009 27.7324 26.4297 27.7324 26.8203C27.7324 27.1979 27.804 27.5267 27.9473 27.8066C28.0905 28.0801 28.2858 28.2917 28.5332 28.4414C28.7871 28.5846 29.0801 28.6562 29.4121 28.6562C29.7441 28.6562 30.0306 28.5846 30.2715 28.4414C30.5189 28.2917 30.7077 28.0801 30.8379 27.8066C30.9746 27.5267 31.043 27.1979 31.043 26.8203ZM34.0605 20.5801C34.0605 21.3223 33.862 21.9733 33.4648 22.5332C33.0742 23.0866 32.5273 23.5195 31.8242 23.832C31.1276 24.138 30.3236 24.291 29.4121 24.291C28.5072 24.291 27.6999 24.138 26.9902 23.832C26.2871 23.5195 25.7337 23.0866 25.3301 22.5332C24.9329 21.9733 24.7344 21.3223 24.7344 20.5801C24.7344 19.7077 24.9329 18.9753 25.3301 18.3828C25.7337 17.7904 26.2871 17.3411 26.9902 17.0352C27.6934 16.7292 28.4941 16.5762 29.3926 16.5762C30.304 16.5762 31.1113 16.7292 31.8145 17.0352C32.5176 17.3411 33.0677 17.7904 33.4648 18.3828C33.862 18.9753 34.0605 19.7077 34.0605 20.5801ZM30.7695 20.7559C30.7695 20.4173 30.7174 20.1276 30.6133 19.8867C30.5091 19.6393 30.3561 19.4505 30.1543 19.3203C29.9525 19.1836 29.6986 19.1152 29.3926 19.1152C29.0996 19.1152 28.8522 19.1803 28.6504 19.3105C28.4486 19.4408 28.2956 19.6296 28.1914 19.877C28.0872 20.1178 28.0352 20.4108 28.0352 20.7559C28.0352 21.0944 28.0872 21.3906 28.1914 21.6445C28.2956 21.8984 28.4486 22.097 28.6504 22.2402C28.8587 22.3835 29.1126 22.4551 29.4121 22.4551C29.7181 22.4551 29.9688 22.3835 30.1641 22.2402C30.3659 22.097 30.5156 21.8984 30.6133 21.6445C30.7174 21.3906 30.7695 21.0944 30.7695 20.7559Z" fill="black"/>
<path d="M42.56 10.56H46.36V13.06H42.56V16.86H40.06V13.06H36.26V10.56H40.06V6.76H42.56V10.56Z" fill="black"/>
</svg>
