<svg width="27" height="27" viewBox="0 0 27 27" fill="none" xmlns="http://www.w3.org/2000/svg">
<path d="M8.376 9.248V17.012H6.744V9.248H8.376ZM13.5695 13.028C13.9455 13.292 14.1335 13.744 14.1335 14.384V15.536C14.1335 16.592 13.6375 17.12 12.6455 17.12H11.2295C10.2375 17.12 9.74147 16.592 9.74147 15.536V14.384C9.74147 13.744 9.92947 13.292 10.3055 13.028C9.97747 12.788 9.81347 12.356 9.81347 11.732V10.7C9.81347 9.644 10.3095 9.116 11.3015 9.116H12.5735C13.5655 9.116 14.0615 9.644 14.0615 10.7V11.732C14.0615 12.356 13.8975 12.788 13.5695 13.028ZM11.3135 10.7V12.164C11.3135 12.228 11.3335 12.284 11.3735 12.332C11.4215 12.38 11.4775 12.404 11.5415 12.404H12.3455C12.4095 12.404 12.4615 12.38 12.5015 12.332C12.5495 12.284 12.5735 12.228 12.5735 12.164V10.7C12.5735 10.636 12.5495 10.58 12.5015 10.532C12.4615 10.484 12.4095 10.46 12.3455 10.46H11.5415C11.4775 10.46 11.4215 10.484 11.3735 10.532C11.3335 10.58 11.3135 10.636 11.3135 10.7ZM12.6455 15.572V13.976C12.6455 13.912 12.6215 13.856 12.5735 13.808C12.5335 13.76 12.4815 13.736 12.4175 13.736H11.4695C11.4055 13.736 11.3495 13.76 11.3015 13.808C11.2615 13.856 11.2415 13.912 11.2415 13.976V15.572C11.2415 15.636 11.2615 15.692 11.3015 15.74C11.3495 15.788 11.4055 15.812 11.4695 15.812H12.4175C12.4815 15.812 12.5335 15.788 12.5735 15.74C12.6215 15.692 12.6455 15.636 12.6455 15.572ZM20.0225 12.644V13.844H18.3905V15.8H17.0345V13.844H15.4025V12.644H17.0345V10.7H18.3905V12.644H20.0225Z" fill="white"/>
<path d="M13.5 25.75C16.7292 25.75 19.8208 25.2298 22.1056 23.3676C24.4227 21.479 25.75 18.3473 25.75 13.5C25.75 8.65274 24.4227 5.52103 22.1056 3.6324C19.8208 1.77015 16.7292 1.25 13.5 1.25C10.2708 1.25 7.17917 1.77015 4.89443 3.6324C2.57731 5.52103 1.25 8.65274 1.25 13.5C1.25 18.3473 2.57731 21.479 4.89443 23.3676C7.17917 25.2298 10.2708 25.75 13.5 25.75Z" stroke="white" stroke-width="1.5"/>
</svg>
