<svg width="48" height="48" viewBox="0 0 48 48" fill="none" xmlns="http://www.w3.org/2000/svg">
<path fill-rule="evenodd" clip-rule="evenodd" d="M6.72969 15.4074C6.72287 15.4006 6.71264 15.3938 6.70412 15.3853C4.31093 12.9904 4.31093 9.10251 6.70412 6.70731C9.10072 4.31241 12.9886 4.31241 15.3838 6.70731C15.5918 6.91526 15.885 7.24425 16.2378 7.66696C12.1622 9.25048 9.00707 12.0566 6.72969 15.4074ZM31.7608 7.66896C32.1154 7.24452 32.4069 6.91553 32.6148 6.7076C35.0114 4.31101 38.8975 4.31101 41.2945 6.7076C43.6894 9.1025 43.6894 12.9904 41.2945 15.3856C41.286 15.3924 41.2792 15.4009 41.2706 15.4077C38.9916 12.0549 35.8382 9.25252 31.7608 7.66896ZM22.6365 43.0655C18.7279 42.9223 14.6541 42.1484 11.4394 40.4814C7.57855 38.4768 4.90918 35.2245 4.90918 30.3224C4.90918 21.0427 10.8429 9.00035 24.0001 9.00035C37.1573 9.00035 43.091 21.0431 43.091 30.3224C43.091 35.2245 40.4455 38.4754 36.5983 40.4796C33.3921 42.1518 29.3133 42.924 25.3637 43.0671V37.3604C26.0489 37.0689 26.6336 36.5643 27.0223 35.9013L28.0774 34.091C28.7098 33.0086 28.7132 31.6723 28.0893 30.5848C27.4671 29.499 26.3081 28.8291 25.0552 28.8308H22.945C21.6922 28.8291 20.5331 29.499 19.9109 30.5848C19.2871 31.6723 19.2905 33.0086 19.9229 34.091L20.978 35.9013C21.3666 36.5643 21.953 37.0689 22.6365 37.3604L22.6365 43.0655ZM28.2359 26.7529C28.6092 28.1063 29.6694 29.2313 31.1217 29.6216C33.3035 30.2063 35.5486 28.9108 36.1311 26.729C36.5232 25.2751 36.0766 23.7955 35.0914 22.7949C34.6652 22.3637 34.3584 21.8319 34.1982 21.2489C33.8249 19.8938 32.7646 18.7688 31.3107 18.3785C29.1305 17.7938 26.8855 19.0909 26.3012 21.2711C25.9126 22.725 26.3575 24.2063 27.3427 25.2051C27.7671 25.6364 28.0756 26.1682 28.2359 26.7529ZM30.866 26.0284C30.5813 24.9955 30.0376 24.0529 29.2841 23.291C28.9552 22.9552 28.8052 22.4626 28.9347 21.9768C29.129 21.2506 29.8774 20.8177 30.6052 21.0137C31.091 21.1415 31.4438 21.52 31.5699 21.9716C31.8529 23.0046 32.3983 23.9472 33.15 24.7108C33.479 25.0432 33.6273 25.5375 33.4978 26.0233C33.3034 26.7495 32.5551 27.1824 31.8273 26.9881C31.3432 26.8568 30.9904 26.4818 30.866 26.0284ZM12.9105 22.7949C11.9236 23.7955 11.4769 25.275 11.869 26.729C12.4519 28.9108 14.6969 30.2063 16.8785 29.6216C18.3307 29.2312 19.391 28.1062 19.7643 26.7528C19.9245 26.1682 20.233 25.6364 20.6575 25.2051C21.6444 24.2062 22.0876 22.725 21.6989 21.271C21.116 19.0909 18.8694 17.7937 16.6895 18.3784C15.2355 18.7688 14.1753 19.8938 13.802 21.2489C13.6417 21.8318 13.3349 22.3636 12.9105 22.7949ZM14.8502 24.7108C15.602 23.9472 16.1474 23.0045 16.4304 21.9716C16.5565 21.5199 16.9094 21.1415 17.3951 21.0137C18.123 20.8176 18.8712 21.2506 19.0656 21.9767C19.1951 22.4625 19.0451 22.9551 18.7161 23.2909C17.9627 24.0528 17.4189 24.9954 17.1343 26.0284C17.0099 26.4818 16.657 26.8585 16.173 26.988C15.4451 27.1824 14.6968 26.7494 14.5025 26.0233C14.373 25.5375 14.5213 25.0432 14.8502 24.7108ZM24.0004 34.909C23.7259 34.909 23.4737 34.7642 23.3339 34.5272L22.2788 32.717C22.139 32.4784 22.139 32.1835 22.2771 31.9432C22.4134 31.7045 22.6691 31.5562 22.9452 31.5562H25.0554C25.3316 31.5562 25.5873 31.7045 25.7236 31.9432C25.8617 32.1835 25.8617 32.4784 25.7219 32.717L24.6668 34.5272C24.527 34.7642 24.2748 34.909 24.0004 34.909Z" fill="white"/>
</svg>
