<svg width="652" height="67" viewBox="0 0 652 67" fill="none" xmlns="http://www.w3.org/2000/svg">
<g clip-path="url(#clip0_2174_42)">
<path d="M39.8999 29.3996H40.8999C43.3999 29.3996 46.2999 29.3996 48.7999 29.3996C50.3999 29.3996 51.6999 29.0996 52.8999 28.0996C55.7999 25.8996 55.7999 21.7996 52.8999 19.8996C51.8999 19.2996 50.9999 18.5996 49.9999 18.5996C46.4999 18.2996 43.2999 18.5996 39.8999 18.2996V29.3996ZM39.8999 48.6996H40.8999C43.7999 48.6996 46.2999 48.6996 49.0999 48.6996C49.6999 48.6996 50.3999 48.6996 50.9999 48.6996C54.7999 48.0996 57.2999 44.5996 56.0999 40.7996C55.4999 38.2996 53.1999 36.9996 50.9999 36.3996C49.3999 36.0996 47.4999 36.0996 45.8999 36.0996C43.9999 36.0996 42.0999 36.0996 39.8999 36.0996V48.6996ZM27.1999 10.9996C30.6999 10.9996 34.4999 10.9996 37.9999 10.9996C42.7999 10.9996 47.4999 10.9996 52.2999 11.2996C56.0999 11.2996 59.2999 12.5996 61.4999 15.6996C63.9999 19.1996 64.6999 22.9996 63.3999 27.0996C62.7999 28.9996 61.4999 30.2996 59.8999 31.1996C59.2999 31.4996 58.8999 31.7996 58.2999 32.1996C59.5999 32.7996 60.7999 33.4996 61.7999 34.3996C64.2999 36.5996 65.5999 39.7996 65.5999 43.2996C65.5999 47.0996 64.2999 50.2996 61.1999 52.7996C58.9999 54.6996 56.3999 55.6996 53.5999 55.9996C52.5999 55.9996 51.6999 56.2996 50.6999 56.2996C43.0999 56.2996 35.4999 56.2996 27.8999 56.2996C27.5999 56.2996 27.2999 56.2996 26.8999 56.2996V48.9996H30.3999V18.5996H26.8999L27.1999 10.9996ZM603.7 42.3996C603.7 41.3996 603.7 40.4996 603.7 39.4996C603.4 37.2996 602.1 35.6996 600.2 34.6996C596.7 32.4996 592.6 33.6996 591 37.5996C590 40.4996 590 42.9996 590.7 45.7996C591.3 47.9996 592.3 49.5996 594.5 50.5996C598.6 52.1996 603.7 48.6996 603.7 44.2996V42.3996ZM595.5 63.5996C594.2 63.2996 592.6 62.9996 591.7 62.2996C589.2 60.9996 587.6 59.0996 586.6 56.2996C587.9 56.2996 589.1 56.2996 590.4 56.2996C590.7 56.2996 590.7 56.5996 591 56.5996C593.2 60.3996 597.7 61.3996 601.5 59.0996C603.1 58.0996 603.7 56.8996 604 54.9996C604 53.0996 604 51.1996 604 49.2996C603.7 49.5996 603.4 50.2996 603 50.5996C599.2 54.9996 592.2 54.0996 589 49.5996C586.8 46.6996 586.5 43.5996 586.8 40.0996C586.8 37.8996 587.8 35.9996 588.7 34.0996C591.9 29.2996 599.5 28.3996 603 33.4996C603.3 33.7996 603.6 34.0996 604 34.7996V30.6996H611V33.5996H607.5V34.5996C607.5 41.2996 607.5 47.8996 607.5 54.5996C607.5 59.3996 604.6 62.1996 600.2 63.1996C599.6 63.1996 599.2 63.4996 598.6 63.4996H595.4V63.5996H595.5ZM625 -3.0004C625 -8.1004 620.9 -12.2004 615.8 -12.2004C610.7 -12.2004 606.6 -8.1004 606.3 -3.0004C606.3 2.0996 610.4 6.1996 615.5 6.4996C620.9 6.1996 625 2.0996 625 -3.0004ZM626.9 -1.70039C626.6 0.199606 625.9 1.7996 624.7 3.3996C621.8 7.1996 617.1 8.7996 612.6 7.4996C608.2 6.1996 605 2.3996 604.7 -2.0004C604.1 -8.0004 608.2 -13.4004 613.9 -14.4004C613.9 -14.4004 614.2 -14.4004 614.5 -14.4004H617H617.3C620.5 -13.8004 622.7 -12.5004 624.6 -10.0004C625.9 -8.4004 626.2 -6.80039 626.8 -4.90039V-1.70039H626.9ZM405.9 32.4996C405.3 35.6996 404.3 38.7996 403.7 41.9996C402.7 46.3996 401.5 50.8996 400.5 55.2996C400.5 55.5996 400.5 55.8996 399.9 55.8996C397 55.8996 394.2 55.8996 391.3 55.8996C391 54.8996 390.7 53.9996 390.7 52.9996C388.5 45.0996 386.3 37.0996 384.4 29.1996C384.4 28.5996 384.1 28.1996 383.4 28.1996C382.8 28.1996 382.1 28.1996 381.2 28.1996V21.4996H394.8V28.1996H391.3C392.9 34.8996 394.5 41.4996 396.1 48.1996C396.4 47.5996 396.4 46.5996 396.7 45.9996C398.3 38.0996 399.9 30.0996 401.8 22.4996C401.8 22.1996 402.1 21.8996 402.4 21.8996C404.9 21.8996 407.5 21.8996 410 21.8996C410.6 21.8996 410.6 22.1996 410.6 22.4996C412.5 30.6996 414.1 38.9996 416 47.1996C416 47.4996 416 47.4996 416.3 47.7996L420.7 28.0996H417.2V21.3996H430.8V28.0996C430.2 28.0996 429.2 28.0996 428.6 28.0996C428.3 28.0996 428 28.0996 428 28.6996C425.8 37.2996 423.2 46.0996 421 54.6996C420.7 55.2996 420.7 55.6996 420 55.6996C417.5 55.6996 414.9 55.6996 412.4 55.6996C411.8 55.6996 411.8 55.6996 411.4 55.0996C409.5 47.7996 407.9 40.4996 406 32.8996C406.2 32.7996 406.2 32.7996 405.9 32.4996ZM360.2 19.7996C358 26.4996 356.1 32.7996 354.2 39.4996H365.9C364 32.7996 362.1 26.1996 360.2 19.7996ZM381.4 48.6996V55.9996H371.3C370.7 53.7996 370 51.5996 369.4 49.2996C369.1 48.2996 368.8 47.3996 368.4 46.3996C368.4 46.0996 368.1 46.0996 367.8 46.0996C362.7 46.0996 357.7 46.0996 352.9 46.0996C352.3 46.0996 352.3 46.3996 352.3 46.6996C351.3 49.5996 350.7 52.3996 349.8 55.2996C349.8 55.5996 349.8 55.5996 349.5 55.8996H339V48.5996C340 48.5996 340.9 48.5996 341.9 48.5996C342.5 48.5996 342.5 48.5996 342.9 47.9996C346.7 35.5996 350.8 23.5996 354.6 11.1996C354.6 10.5996 354.9 10.5996 355.6 10.5996C358.8 10.5996 361.9 10.5996 365.4 10.5996C366 10.5996 366 10.8996 366.4 11.1996C370.5 23.2996 374.3 35.5996 378.5 47.6996C378.8 48.2996 378.8 48.2996 379.5 48.2996C379.5 48.6996 380.5 48.6996 381.4 48.6996ZM505.8 34.3996L520.4 34.6996C520.4 30.8996 517.5 27.9996 513.7 27.9996C509.9 27.7996 506.1 30.8996 505.8 34.3996ZM530.2 40.7996H505.8C506.1 43.9996 507.1 46.7996 509.6 48.6996C511.8 50.2996 514.4 50.5996 517.2 49.6996C519.1 49.0996 520.1 47.7996 521 45.8996C521.3 45.5996 521.3 45.2996 522 45.2996C524.5 45.2996 527.4 45.2996 529.9 44.9996C529.9 45.5996 529.6 45.9996 529.6 46.2996C527.7 52.2996 523.6 55.7996 517.2 56.7996C513.4 57.3996 509.9 57.0996 506.4 55.1996C502 52.9996 499.1 49.1996 497.8 44.0996C496.5 38.0996 497.2 32.3996 501 27.2996C507.3 18.6996 520.7 19.0996 527 27.5996C528.9 30.8996 530.5 36.9996 530.2 40.7996ZM80.1999 34.3996L94.7999 34.6996C95.0999 31.1996 92.2999 28.3996 88.4999 27.9996C84.5999 27.4996 80.4999 30.5996 80.1999 34.3996ZM104 40.7996H79.5999C79.5999 41.3996 79.5999 42.0996 79.8999 42.6996C80.1999 43.9996 80.4999 45.1996 81.1999 46.4996C82.7999 49.3996 85.5999 50.2996 88.7999 49.9996C91.6999 49.6996 93.5999 48.0996 94.4999 45.5996C94.4999 45.2996 94.7999 45.2996 95.0999 45.2996C97.5999 45.2996 100.5 44.9996 103 44.9996H103.3C103 46.8996 102.3 48.4996 101.4 50.0996C98.8999 53.8996 95.3999 56.0996 90.8999 56.7996C87.0999 57.3996 83.2999 57.0996 79.7999 55.1996C74.9999 52.6996 72.4999 48.4996 71.1999 43.4996C70.1999 38.3996 70.5999 33.3996 73.3999 28.8996C79.0999 19.0996 93.6999 18.0996 100.4 27.5996C102.9 31.3996 104.2 35.7996 104.2 40.5996C104.3 40.4996 104.3 40.4996 104 40.7996ZM455.3 39.7996C453.1 40.0996 450.9 40.0996 449 40.7996C447.4 41.0996 446.1 41.3996 444.6 42.0996C442.7 42.6996 442.1 44.2996 442.1 46.1996C442.1 48.0996 443.4 49.3996 445.3 49.9996C448.2 50.9996 451.6 49.9996 453.9 47.7996C455.7 45.4996 455.7 42.6996 455.3 39.7996ZM455.3 34.0996C455.3 33.0996 455 31.8996 455 30.8996C454.7 28.9996 453.4 27.6996 451.5 27.3996C450.2 27.0996 448.6 27.0996 447.4 27.3996C445.2 27.9996 443.6 29.2996 443.6 31.7996C443.6 32.0996 443.6 32.3996 443.6 32.7996L435.4 32.4996C435.4 30.8996 435.7 29.2996 436.7 28.0996C438 25.5996 440.2 23.6996 442.7 22.6996C447.8 20.7996 452.8 20.7996 457.9 22.9996C462 24.5996 463.9 28.0996 464.2 32.1996C464.5 35.9996 464.2 39.7996 464.2 43.8996C464.2 45.7996 464.2 47.6996 464.2 49.8996H467.1V56.5996H456.3V52.7996C456 53.0996 455.3 53.7996 455 54.0996C449.9 58.4996 441.4 58.1996 436.6 53.7996C432.5 49.6996 432.5 41.3996 438.8 38.2996C441.7 36.6996 444.5 36.0996 447.7 35.7996C450.2 35.4996 452.8 35.1996 455.6 34.7996C455 34.0996 455 34.0996 455.3 34.0996ZM200.4 27.7996C201.7 26.4996 202.6 25.2996 203.9 23.9996C206.8 21.4996 209.9 20.4996 213.7 21.0996C216.6 21.6996 218.1 23.2996 219.1 25.8996C219.4 26.4996 219.4 27.1996 219.7 27.7996C220 27.4996 220.3 26.7996 220.7 26.4996C222.3 23.9996 224.5 21.6996 227.7 21.0996C230.6 20.4996 233.4 20.4996 235.6 22.3996C237.5 23.9996 238.1 26.1996 238.5 28.3996C238.5 28.9996 238.5 29.9996 238.5 30.5996C238.5 37.2996 238.5 43.8996 238.5 50.2996V51.2996H243.3V55.3996H233.8V54.3996C233.8 46.4996 233.8 38.8996 233.8 30.8996C233.8 29.8996 233.8 29.2996 233.5 28.3996C232.9 25.1996 230.6 23.5996 227.2 24.5996C224.7 25.1996 223.1 26.7996 221.5 28.9996C220.2 30.8996 219.6 33.0996 219.6 35.2996C219.6 40.3996 219.6 45.3996 219.6 50.4996V51.4996H224.7V55.5996H214.3V54.5996C214.3 46.6996 214.3 38.6996 214.3 30.7996C214.3 29.7996 214.3 28.8996 214 27.8996C213.4 25.9996 212.1 24.9996 210.2 24.6996C207.3 24.3996 205.4 25.6996 203.5 27.5996C201.3 30.0996 200 32.6996 200.3 36.1996C200.3 40.9996 200.3 45.6996 200.3 50.7996V51.7996H205.4V55.8996H190.9V51.7996H195.7V25.4996H190.9V21.3996H201C200.1 23.5996 200.1 25.5996 200.4 27.7996ZM142.3 37.5996H131.8C131.8 36.2996 131.8 34.6996 132.1 33.4996H148V55.6996H143V48.6996C142.7 48.9996 142.7 48.9996 142.7 49.2996C139.5 54.0996 135.4 56.5996 129.7 56.8996C125.3 56.8996 121.8 55.2996 118.3 52.4996C114.5 48.9996 112.3 44.5996 111.3 39.7996C110 33.4996 110.7 27.0996 113.2 21.0996C115.1 16.9996 118 13.4996 122.1 11.5996C128.8 8.39961 137 9.69962 141.8 16.6996C141.8 16.9996 142.1 16.9996 142.4 17.2996V10.2996H147.2V24.5996H142C141.7 22.6996 140.7 21.0996 139.8 19.4996C137.3 15.9996 133.8 14.0996 129.7 14.0996C125.9 14.0996 122.7 15.9996 120.5 18.8996C118.3 21.3996 117.3 24.5996 116.7 28.0996C116.1 32.8996 116.4 37.2996 118 41.6996C119 44.1996 120.2 46.4996 122.4 48.3996C126.2 51.8996 131 52.4996 135.4 50.2996C139.8 48.3996 142.7 42.9996 142.3 37.5996ZM276.8 38.5996C276.8 37.9996 276.8 37.2996 276.8 36.3996C276.5 33.8996 275.8 31.2996 274.6 29.0996C272.1 25.5996 267.9 24.2996 264.1 26.1996C260.6 27.7996 257.1 32.1996 257.8 36.9996C258.1 39.4996 257.8 41.7996 258.4 44.2996C259 48.3996 263.2 51.8996 267.3 52.4996C270.8 52.7996 274 50.8996 275.5 47.6996C276.2 44.5996 276.8 41.6996 276.8 38.5996ZM252.4 13.1996H248V9.09961H257.5V28.7996C257.8 28.4996 257.8 28.1996 258.1 28.1996C259.1 26.5996 260.6 24.9996 262.2 23.7996C266.6 20.5996 272 20.5996 276.5 24.3996C279.7 26.8996 281.3 30.3996 282.2 34.1996C283.5 39.8996 282.8 45.2996 279.7 50.3996C278.1 52.8996 275.9 55.1996 273 56.3996C268.6 57.9996 263.5 56.6996 260.3 53.1996C259.7 52.1996 258.7 51.2996 257.8 50.2996V56.2996H248V52.1996H252.8V13.1996H252.4ZM176.3 38.5996C176 38.5996 175.7 38.5996 175.7 38.5996C172.8 38.8996 170 39.5996 166.8 40.1996C164.9 40.4996 163 41.1996 161.4 42.3996C160.4 42.9996 159.5 43.9996 159.5 45.5996C158.9 49.3996 161.7 53.1996 165.8 53.4996C170.2 53.7996 175 50.2996 175.9 45.8996C176.3 42.9996 175.9 40.7996 176.3 38.5996ZM180.7 52.1996H185.5C185.5 53.4996 185.8 55.0996 185.8 56.2996H176V50.2996C175.7 50.5996 175.7 50.5996 175.7 50.5996C173.2 54.6996 169.4 56.5996 164.6 56.8996C160.5 57.1996 157.3 55.5996 155.1 52.0996C153.2 48.8996 152.6 45.7996 154.5 42.2996C155.5 40.0996 157.4 39.0996 159.6 38.1996C162.5 36.8996 165.6 36.2996 168.8 35.6996C171 35.3996 173.6 35.0996 176.1 34.6996C176.1 33.0996 176.1 31.1996 175.8 29.5996C175.2 27.0996 173.3 25.7996 171 25.1996C169.1 24.5996 166.9 24.8996 165 25.1996C162.5 25.7996 160.9 27.6996 160.2 29.9996C159.9 30.5996 159.9 30.9996 158.9 30.9996C157.3 30.9996 156 30.9996 154.5 30.9996C155.5 26.8996 157.4 23.9996 161.2 22.0996C165.6 20.1996 170.1 20.1996 174.5 22.0996C178 23.6996 179.9 26.4996 180.5 30.2996C180.5 31.2996 180.5 31.8996 180.5 32.7996C180.5 38.7996 180.5 44.4996 180.5 50.5996L180.7 52.1996ZM309.1 35.9996H327.8C327.8 33.0996 326.8 30.8996 325.6 28.6996C323.7 26.1996 321.5 24.8996 318.3 25.4996C312.3 26.1996 309.5 30.5996 309.1 35.9996ZM333.6 39.7996H308.9C309.2 41.0996 309.2 41.9996 309.5 42.9996C309.8 44.8996 310.5 46.7996 311.7 48.6996C314.2 52.4996 319.9 53.7996 323.4 51.5996C325 50.5996 325.9 49.0996 326.9 47.4996C327.2 46.8996 327.5 46.4996 328.2 46.4996C329.8 46.4996 331.4 46.4996 333 46.4996C332.7 47.0996 332.7 47.7996 332.4 48.3996C330.2 53.4996 324.2 56.9996 318.4 56.2996C310.5 55.6996 305.1 50.2996 303.8 42.2996C302.8 37.1996 303.5 32.1996 306.3 27.6996C308.5 23.8996 312 21.3996 316.4 20.6996C322.7 19.6996 328.5 22.8996 331.3 28.5996C332.9 31.7996 333.5 35.2996 333.5 39.0996C333.6 39.7996 333.6 39.7996 333.6 39.7996ZM482.9 49.2996H487V55.9996H471.1V49.2996H474.6V28.3996H471.1V21.6996H482.8V26.7996C483.1 26.4996 483.4 25.7996 483.4 25.4996C484.7 23.5996 486.3 21.6996 488.8 21.3996C490.7 20.7996 492.9 21.0996 494.8 21.3996L495.1 21.6996C495.1 24.1996 495.1 26.7996 495.1 29.2996C494.1 29.2996 493.2 28.9996 492.2 28.9996C489.7 28.6996 487.1 29.2996 485.2 30.8996C483.6 32.1996 483 34.0996 482.7 35.9996C482.7 40.0996 482.7 44.1996 482.7 48.6996C482.6 48.9996 482.6 48.9996 482.9 49.2996ZM289.8 12.8996H285V9.09961H294.8V51.8996H299.2V55.9996H285V51.8996H289.8V12.8996ZM546.4 43.5996C546.4 45.4996 546.7 47.3996 547.4 49.2996C548.7 51.7996 550.6 53.3996 553.4 53.3996C556.2 53.3996 558.5 52.0996 559.7 49.5996C560.3 47.9996 560.7 46.6996 561 44.7996C561.3 42.2996 561 39.6996 559.7 37.4996C558.4 34.9996 556.2 33.6996 553.4 33.6996C550.6 33.6996 549 35.2996 547.7 37.4996C546.4 39.4996 546.4 41.3996 546.4 43.5996ZM564.7 42.9996C564.7 46.1996 564.1 48.9996 562.5 51.1996C560 54.9996 556.5 56.2996 552 55.9996C547.9 55.6996 545 53.0996 543.4 49.2996C541.8 45.1996 541.5 40.6996 543.4 36.5996C545.3 32.4996 548.8 30.2996 553.5 30.2996C558.2 30.2996 561.4 32.4996 563.3 36.5996C564.4 38.8996 564.7 41.0996 564.7 42.9996ZM578.7 55.6996H567.6V52.7996H571.1V34.0996H567.6V31.1996H574.9V36.2996C576.2 34.0996 577.8 31.8996 580.3 30.8996C581.6 30.5996 583.8 30.5996 585.1 30.8996V34.3996C584.5 34.3996 583.8 34.3996 583.2 34.0996C578.8 33.7996 575 36.9996 575 41.3996C575 44.8996 575 48.6996 575 52.1996V52.4996H579.1L578.7 55.6996ZM534.3 51.5996H538.4V55.6996H534.3V51.5996ZM612.9 -8.1004V-4.3004C614.2 -4.3004 615.4 -4.3004 616.7 -4.3004C617 -4.3004 617.3 -4.3004 617.7 -4.6004C618.7 -4.9004 619 -5.6004 618.7 -6.8004C618.7 -7.8004 618.1 -8.40039 617.1 -8.40039C615.8 -8.10039 614.5 -8.1004 612.9 -8.1004ZM618.3 -3.3004C619.6 -3.0004 619.9 -2.0004 619.9 -1.1004C619.9 -0.200403 620.2 1.09961 620.2 2.09961C618.3 2.09961 618.6 2.3996 618.3 0.499603C618.3 -0.100397 618.3 -0.800391 618 -1.40039C617.7 -2.40039 617.4 -3.0004 616.1 -3.0004C614.8 -3.0004 613.6 -3.0004 612.3 -3.0004V1.79959H610.7V-9.6004C611 -9.6004 611.3 -9.6004 612 -9.6004C613.6 -9.6004 615.2 -9.6004 616.8 -9.6004C618.4 -9.6004 619.3 -8.60039 619.7 -7.40039C620.6 -5.50039 619.9 -4.3004 618.3 -3.3004Z" fill="black"/>
</g>
<defs>
<clipPath id="clip0_2174_42">
<rect width="652" height="67" fill="white"/>
</clipPath>
</defs>
</svg>
