<svg width="268" height="48" viewBox="0 0 268 48" fill="none" xmlns="http://www.w3.org/2000/svg">
<path d="M16.3685 22.3179H16.7787C17.8044 22.3179 18.9941 22.3179 20.0198 22.3179C20.6762 22.3179 21.2095 22.1948 21.7018 21.7845C22.8916 20.882 22.8916 19.1999 21.7018 18.4204C21.2916 18.1743 20.9223 17.8871 20.5121 17.8871C19.0762 17.764 17.7634 17.8871 16.3685 17.764V22.3179ZM16.3685 30.2358H16.7787C17.9685 30.2358 18.9941 30.2358 20.1428 30.2358C20.389 30.2358 20.6762 30.2358 20.9223 30.2358C22.4813 29.9897 23.5069 28.5538 23.0146 26.9948C22.7685 25.9691 21.8249 25.4358 20.9223 25.1897C20.2659 25.0666 19.4864 25.0666 18.83 25.0666C18.0505 25.0666 17.2711 25.0666 16.3685 25.0666V30.2358ZM11.1582 14.7691C12.5941 14.7691 14.1531 14.7691 15.589 14.7691C17.5582 14.7691 19.4864 14.7691 21.4557 14.8922C23.0146 14.8922 24.3275 15.4256 25.23 16.6974C26.2557 18.1333 26.5428 19.6922 26.0095 21.3743C25.7634 22.1538 25.23 22.6871 24.5736 23.0563C24.3275 23.1794 24.1634 23.3025 23.9172 23.4666C24.4505 23.7127 24.9428 23.9999 25.3531 24.3691C26.3787 25.2717 26.9121 26.5845 26.9121 28.0204C26.9121 29.5794 26.3787 30.8922 25.1069 31.9179C24.2044 32.6973 23.1377 33.1076 21.989 33.2307C21.5787 33.2307 21.2095 33.3538 20.7993 33.3538C17.6813 33.3538 14.5634 33.3538 11.4454 33.3538C11.3223 33.3538 11.1993 33.3538 11.0352 33.3538V30.3589H12.4711V17.8871H11.0352L11.1582 14.7691ZM247.671 27.6512C247.671 27.2409 247.671 26.8717 247.671 26.4615C247.548 25.5589 247.015 24.9025 246.235 24.4922C244.799 23.5897 243.117 24.082 242.461 25.682C242.051 26.8717 242.051 27.8973 242.338 29.0461C242.584 29.9486 242.994 30.605 243.897 31.0153C245.579 31.6717 247.671 30.2358 247.671 28.4307V27.6512ZM244.307 36.3486C243.774 36.2256 243.117 36.1025 242.748 35.8153C241.722 35.282 241.066 34.5025 240.656 33.3538C241.189 33.3538 241.681 33.3538 242.215 33.3538C242.338 33.3538 242.338 33.4768 242.461 33.4768C243.363 35.0358 245.209 35.4461 246.768 34.5025C247.425 34.0922 247.671 33.5999 247.794 32.8204C247.794 32.0409 247.794 31.2614 247.794 30.482C247.671 30.605 247.548 30.8922 247.384 31.0153C245.825 32.8204 242.953 32.4512 241.64 30.605C240.738 29.4153 240.615 28.1435 240.738 26.7076C240.738 25.805 241.148 25.0256 241.517 24.2461C242.83 22.2768 245.948 21.9076 247.384 23.9999C247.507 24.123 247.63 24.2461 247.794 24.5332V22.8512H250.666V24.0409H249.23V24.4512C249.23 27.1999 249.23 29.9076 249.23 32.6563C249.23 34.6256 248.04 35.7743 246.235 36.1845C245.989 36.1845 245.825 36.3076 245.579 36.3076H244.266V36.3486H244.307ZM256.409 9.02555C256.409 6.93325 254.727 5.2512 252.635 5.2512C250.543 5.2512 248.861 6.93325 248.738 9.02555C248.738 11.1179 250.42 12.7999 252.512 12.923C254.727 12.7999 256.409 11.1179 256.409 9.02555ZM257.189 9.55889C257.066 10.3384 256.779 10.9948 256.286 11.6512C255.097 13.2102 253.168 13.8666 251.322 13.3332C249.517 12.7999 248.204 11.2409 248.081 9.43581C247.835 6.97427 249.517 4.75889 251.856 4.34863C251.856 4.34863 251.979 4.34863 252.102 4.34863H253.127H253.251C254.563 4.59479 255.466 5.12812 256.245 6.15376C256.779 6.81017 256.902 7.46658 257.148 8.24607V9.55889H257.189ZM166.522 23.5897C166.276 24.9025 165.866 26.1743 165.62 27.4871C165.21 29.2922 164.717 31.1384 164.307 32.9435C164.307 33.0666 164.307 33.1897 164.061 33.1897C162.871 33.1897 161.722 33.1897 160.533 33.1897C160.41 32.7794 160.286 32.4102 160.286 31.9999C159.384 28.7589 158.481 25.4768 157.702 22.2358C157.702 21.9897 157.579 21.8256 157.292 21.8256C157.045 21.8256 156.758 21.8256 156.389 21.8256V19.0768H161.968V21.8256H160.533C161.189 24.5743 161.845 27.282 162.502 30.0307C162.625 29.7845 162.625 29.3743 162.748 29.1281C163.404 25.8871 164.061 22.605 164.84 19.4871C164.84 19.364 164.963 19.2409 165.086 19.2409C166.112 19.2409 167.179 19.2409 168.204 19.2409C168.451 19.2409 168.451 19.364 168.451 19.4871C169.23 22.8512 169.886 26.2563 170.666 29.6204C170.666 29.7435 170.666 29.7435 170.789 29.8666L172.594 21.7845H171.158V19.0358H176.738V21.7845C176.492 21.7845 176.081 21.7845 175.835 21.7845C175.712 21.7845 175.589 21.7845 175.589 22.0307C174.686 25.5589 173.62 29.1691 172.717 32.6974C172.594 32.9435 172.594 33.1076 172.307 33.1076C171.281 33.1076 170.215 33.1076 169.189 33.1076C168.943 33.1076 168.943 33.1076 168.779 32.8615C167.999 29.8666 167.343 26.8717 166.563 23.7538C166.645 23.7127 166.645 23.7127 166.522 23.5897ZM147.774 18.3794C146.871 21.1281 146.092 23.7127 145.312 26.4615H150.112C149.333 23.7127 148.553 21.005 147.774 18.3794ZM156.471 30.2358V33.2307H152.327C152.081 32.3281 151.794 31.4255 151.548 30.482C151.425 30.0717 151.302 29.7025 151.138 29.2922C151.138 29.1691 151.015 29.1691 150.892 29.1691C148.799 29.1691 146.748 29.1691 144.779 29.1691C144.533 29.1691 144.533 29.2922 144.533 29.4153C144.122 30.605 143.876 31.7538 143.507 32.9435C143.507 33.0666 143.507 33.0666 143.384 33.1897H139.076V30.1948C139.486 30.1948 139.856 30.1948 140.266 30.1948C140.512 30.1948 140.512 30.1948 140.676 29.9486C142.235 24.8615 143.917 19.9384 145.476 14.8512C145.476 14.605 145.599 14.605 145.886 14.605C147.199 14.605 148.471 14.605 149.907 14.605C150.153 14.605 150.153 14.7281 150.317 14.8512C151.999 19.8153 153.558 24.8615 155.281 29.8256C155.404 30.0717 155.404 30.0717 155.692 30.0717C155.692 30.2358 156.102 30.2358 156.471 30.2358ZM207.507 24.3691L213.497 24.4922C213.497 22.9333 212.307 21.7435 210.748 21.7435C209.189 21.6615 207.63 22.9332 207.507 24.3691ZM217.517 26.9948H207.507C207.63 28.3076 208.04 29.4563 209.066 30.2358C209.968 30.8922 211.035 31.0153 212.184 30.6461C212.963 30.3999 213.374 29.8666 213.743 29.0871C213.866 28.964 213.866 28.8409 214.153 28.8409C215.179 28.8409 216.368 28.8409 217.394 28.7179C217.394 28.964 217.271 29.1281 217.271 29.2512C216.492 31.7127 214.81 33.1486 212.184 33.5589C210.625 33.805 209.189 33.682 207.753 32.9025C205.948 31.9999 204.758 30.4409 204.225 28.3486C203.692 25.8871 203.979 23.5486 205.538 21.4563C208.122 17.9281 213.62 18.0922 216.204 21.5794C216.984 22.9332 217.64 25.4358 217.517 26.9948ZM32.9018 24.3691L38.8916 24.4922C39.0146 23.0563 37.8659 21.9076 36.3069 21.7435C34.7069 21.5384 33.0249 22.8102 32.9018 24.3691ZM42.6659 26.9948H32.6557C32.6557 27.2409 32.6557 27.5281 32.7787 27.7743C32.9018 28.3076 33.0249 28.7999 33.3121 29.3332C33.9685 30.523 35.1172 30.8922 36.43 30.7691C37.6198 30.6461 38.3993 29.9897 38.7685 28.964C38.7685 28.8409 38.8916 28.8409 39.0146 28.8409C40.0403 28.8409 41.23 28.7179 42.2557 28.7179H42.3787C42.2557 29.4973 41.9685 30.1538 41.5993 30.8102C40.5736 32.3691 39.1377 33.2717 37.2916 33.5589C35.7326 33.805 34.1736 33.682 32.7377 32.9025C30.7685 31.8768 29.7428 30.1538 29.2095 28.1025C28.7993 26.0102 28.9634 23.9589 30.1121 22.1127C32.4505 18.0922 38.4403 17.682 41.189 21.5794C42.2146 23.1384 42.748 24.9435 42.748 26.9127C42.789 26.8717 42.789 26.8717 42.6659 26.9948ZM186.789 26.5845C185.886 26.7076 184.984 26.7076 184.204 26.9948C183.548 27.1179 183.015 27.2409 182.399 27.5281C181.62 27.7743 181.374 28.4307 181.374 29.2102C181.374 29.9897 181.907 30.523 182.686 30.7691C183.876 31.1794 185.271 30.7691 186.215 29.8666C186.953 28.923 186.953 27.7743 186.789 26.5845ZM186.789 24.2461C186.789 23.8358 186.666 23.3435 186.666 22.9332C186.543 22.1538 186.01 21.6204 185.23 21.4973C184.697 21.3743 184.04 21.3743 183.548 21.4973C182.645 21.7435 181.989 22.2768 181.989 23.3025C181.989 23.4255 181.989 23.5486 181.989 23.7127L178.625 23.5897C178.625 22.9332 178.748 22.2768 179.158 21.7845C179.692 20.7589 180.594 19.9794 181.62 19.5691C183.712 18.7897 185.763 18.7897 187.856 19.6922C189.538 20.3486 190.317 21.7845 190.44 23.4666C190.563 25.0256 190.44 26.5845 190.44 28.2666C190.44 29.0461 190.44 29.8256 190.44 30.7281H191.63V33.4768H187.199V31.9179C187.076 32.0409 186.789 32.3281 186.666 32.4512C184.574 34.2563 181.086 34.1332 179.117 32.3281C177.435 30.6461 177.435 27.2409 180.02 25.9691C181.21 25.3127 182.358 25.0666 183.671 24.9435C184.697 24.8204 185.763 24.6973 186.912 24.5332C186.666 24.2461 186.666 24.2461 186.789 24.2461ZM82.2146 21.6614C82.748 21.1281 83.1172 20.6358 83.6505 20.1025C84.8403 19.0768 86.1121 18.6666 87.6711 18.9127C88.8608 19.1589 89.4762 19.8153 89.8864 20.882C90.0095 21.1281 90.0095 21.4153 90.1326 21.6614C90.2557 21.5384 90.3787 21.2512 90.5428 21.1281C91.1992 20.1025 92.1018 19.1589 93.4146 18.9127C94.6044 18.6666 95.7531 18.6666 96.6557 19.4461C97.4352 20.1025 97.6813 21.005 97.8454 21.9076C97.8454 22.1538 97.8454 22.564 97.8454 22.8102C97.8454 25.5589 97.8454 28.2666 97.8454 30.8922V31.3025H99.8146V32.9845H95.9172V32.5743C95.9172 29.3332 95.9172 26.2153 95.9172 22.9332C95.9172 22.523 95.9172 22.2768 95.7941 21.9076C95.548 20.5948 94.6044 19.9384 93.2095 20.3486C92.1839 20.5948 91.5275 21.2512 90.871 22.1538C90.3377 22.9332 90.0916 23.8358 90.0916 24.7384C90.0916 26.8307 90.0916 28.882 90.0916 30.9743V31.3845H92.1839V33.0666H87.9172V32.6563C87.9172 29.4153 87.9172 26.1332 87.9172 22.8922C87.9172 22.482 87.9172 22.1127 87.7941 21.7025C87.548 20.923 87.0146 20.5127 86.2352 20.3897C85.0454 20.2666 84.2659 20.7999 83.4864 21.5794C82.5839 22.605 82.0505 23.6717 82.1736 25.1076C82.1736 27.0768 82.1736 29.005 82.1736 31.0973V31.5076H84.2659V33.1897H78.3172V31.5076H80.2864V20.7179H78.3172V19.0358H82.4608C82.0916 19.9384 82.0916 20.7589 82.2146 21.6614ZM58.3787 25.682H54.071C54.071 25.1486 54.071 24.4922 54.1941 23.9999H60.7172V33.1076H58.6659V30.2358C58.5428 30.3589 58.5428 30.3589 58.5428 30.482C57.23 32.4512 55.548 33.4768 53.2095 33.5999C51.4044 33.5999 49.9685 32.9435 48.5326 31.7948C46.9736 30.3589 46.071 28.5538 45.6608 26.5845C45.1275 23.9999 45.4146 21.3743 46.4403 18.9127C47.2198 17.2307 48.4095 15.7948 50.0916 15.0153C52.8403 13.7025 56.2044 14.2358 58.1736 17.1076C58.1736 17.2307 58.2967 17.2307 58.4198 17.3538V14.482H60.389V20.3486H58.2557C58.1326 19.5691 57.7223 18.9127 57.3531 18.2563C56.3275 16.8204 54.8916 16.0409 53.2095 16.0409C51.6505 16.0409 50.3377 16.8204 49.4352 18.0102C48.5326 19.0358 48.1223 20.3486 47.8762 21.7845C47.63 23.7538 47.7531 25.5589 48.4095 27.364C48.8198 28.3897 49.3121 29.3332 50.2146 30.1127C51.7736 31.5486 53.7428 31.7948 55.548 30.8922C57.3531 30.1127 58.5428 27.8974 58.3787 25.682ZM113.558 26.0922C113.558 25.8461 113.558 25.5589 113.558 25.1897C113.435 24.164 113.148 23.0974 112.656 22.1948C111.63 20.7589 109.907 20.2256 108.348 21.005C106.912 21.6615 105.476 23.4666 105.763 25.4358C105.886 26.4615 105.763 27.405 106.01 28.4307C106.256 30.1127 107.979 31.5486 109.661 31.7948C111.097 31.9179 112.41 31.1384 113.025 29.8256C113.312 28.5538 113.558 27.364 113.558 26.0922ZM103.548 15.6717H101.743V13.9897H105.64V22.0717C105.763 21.9486 105.763 21.8256 105.886 21.8256C106.297 21.1691 106.912 20.5127 107.568 20.0204C109.374 18.7076 111.589 18.7076 113.435 20.2666C114.748 21.2922 115.404 22.7281 115.774 24.2871C116.307 26.6256 116.02 28.8409 114.748 30.9332C114.092 31.9589 113.189 32.9025 111.999 33.3948C110.194 34.0512 108.102 33.5179 106.789 32.082C106.543 31.6717 106.133 31.3025 105.763 30.8922V33.3538H101.743V31.6717H103.712V15.6717H103.548ZM72.3275 26.0922C72.2044 26.0922 72.0813 26.0922 72.0813 26.0922C70.8916 26.2153 69.7428 26.5025 68.43 26.7486C67.6505 26.8717 66.8711 27.1589 66.2146 27.6512C65.8044 27.8973 65.4352 28.3076 65.4352 28.964C65.189 30.523 66.3377 32.082 68.0198 32.205C69.8249 32.3281 71.7941 30.8922 72.1634 29.0871C72.3275 27.8973 72.1634 26.9948 72.3275 26.0922ZM74.1326 31.6717H76.1018C76.1018 32.205 76.2249 32.8614 76.2249 33.3538H72.2044V30.8922C72.0813 31.0153 72.0813 31.0153 72.0813 31.0153C71.0557 32.6974 69.4967 33.4768 67.5275 33.5999C65.8454 33.723 64.5326 33.0666 63.63 31.6307C62.8505 30.3179 62.6044 29.0461 63.3839 27.6102C63.7941 26.7076 64.5736 26.2974 65.4762 25.9281C66.6659 25.3948 67.9377 25.1486 69.2505 24.9025C70.1531 24.7794 71.2198 24.6563 72.2454 24.4922C72.2454 23.8358 72.2454 23.0563 72.1223 22.3999C71.8762 21.3743 71.0967 20.8409 70.1531 20.5948C69.3736 20.3486 68.4711 20.4717 67.6916 20.5948C66.6659 20.8409 66.0095 21.6204 65.7223 22.564C65.5993 22.8102 65.5993 22.9743 65.189 22.9743C64.5326 22.9743 63.9993 22.9743 63.3839 22.9743C63.7941 21.2922 64.5736 20.1025 66.1326 19.323C67.9377 18.5435 69.7839 18.5435 71.589 19.323C73.0249 19.9794 73.8044 21.1281 74.0505 22.6871C74.0505 23.0973 74.0505 23.3435 74.0505 23.7127C74.0505 26.1743 74.0505 28.5127 74.0505 31.0153L74.1326 31.6717ZM126.81 25.0256H134.481C134.481 23.8358 134.071 22.9333 133.579 22.0307C132.799 21.005 131.897 20.4717 130.584 20.7179C128.122 21.005 126.974 22.8102 126.81 25.0256ZM136.861 26.5845H126.727C126.851 27.1179 126.851 27.4871 126.974 27.8973C127.097 28.6768 127.384 29.4563 127.876 30.2358C128.902 31.7948 131.24 32.3281 132.676 31.4256C133.333 31.0153 133.702 30.3999 134.112 29.7435C134.235 29.4973 134.358 29.3332 134.645 29.3332C135.302 29.3332 135.958 29.3332 136.615 29.3332C136.492 29.5794 136.492 29.8666 136.368 30.1127C135.466 32.205 133.004 33.6409 130.625 33.3538C127.384 33.1076 125.168 30.8922 124.635 27.6102C124.225 25.5179 124.512 23.4666 125.661 21.6204C126.563 20.0615 127.999 19.0358 129.804 18.7486C132.389 18.3384 134.768 19.6512 135.917 21.9897C136.574 23.3025 136.82 24.7384 136.82 26.2974C136.861 26.5845 136.861 26.5845 136.861 26.5845ZM198.112 30.482H199.794V33.2307H193.271V30.482H194.707V21.9076H193.271V19.1589H198.071V21.2512C198.194 21.1281 198.317 20.8409 198.317 20.7179C198.851 19.9384 199.507 19.1589 200.533 19.0358C201.312 18.7897 202.215 18.9127 202.994 19.0358L203.117 19.1589C203.117 20.1845 203.117 21.2512 203.117 22.2768C202.707 22.2768 202.338 22.1538 201.927 22.1538C200.902 22.0307 199.835 22.2768 199.056 22.9332C198.399 23.4666 198.153 24.2461 198.03 25.0256C198.03 26.7076 198.03 28.3897 198.03 30.2358C197.989 30.3589 197.989 30.3589 198.112 30.482ZM118.892 15.5486H116.922V13.9897H120.943V31.5486H122.748V33.2307H116.922V31.5486H118.892V15.5486ZM224.163 28.1435C224.163 28.923 224.286 29.7025 224.574 30.482C225.107 31.5076 225.886 32.164 227.035 32.164C228.184 32.164 229.127 31.6307 229.62 30.605C229.866 29.9486 230.03 29.4153 230.153 28.6358C230.276 27.6102 230.153 26.5435 229.62 25.6409C229.086 24.6153 228.184 24.082 227.035 24.082C225.886 24.082 225.23 24.7384 224.697 25.6409C224.163 26.4615 224.163 27.2409 224.163 28.1435ZM231.671 27.8973C231.671 29.2102 231.425 30.3589 230.768 31.2615C229.743 32.8204 228.307 33.3538 226.461 33.2307C224.779 33.1076 223.589 32.0409 222.933 30.482C222.276 28.7999 222.153 26.9538 222.933 25.2717C223.712 23.5897 225.148 22.6871 227.076 22.6871C229.004 22.6871 230.317 23.5897 231.097 25.2717C231.548 26.2153 231.671 27.1179 231.671 27.8973ZM237.415 33.1076H232.861V31.9179H234.297V24.2461H232.861V23.0563H235.856V25.1486C236.389 24.2461 237.045 23.3435 238.071 22.9332C238.604 22.8102 239.507 22.8102 240.04 22.9332V24.3691C239.794 24.3691 239.507 24.3691 239.261 24.2461C237.456 24.123 235.897 25.4358 235.897 27.2409C235.897 28.6768 235.897 30.2358 235.897 31.6717V31.7948H237.579L237.415 33.1076ZM219.199 31.4256H220.881V33.1076H219.199V31.4256ZM251.445 6.93324V8.49222C251.979 8.49222 252.471 8.49222 253.004 8.49222C253.127 8.49222 253.251 8.49222 253.415 8.36914C253.825 8.24606 253.948 7.95889 253.825 7.46658C253.825 7.05632 253.579 6.81017 253.168 6.81017C252.635 6.93325 252.102 6.93324 251.445 6.93324ZM253.661 8.90248C254.194 9.02555 254.317 9.43581 254.317 9.80504C254.317 10.1743 254.44 10.7076 254.44 11.1179C253.661 11.1179 253.784 11.2409 253.661 10.4615C253.661 10.2153 253.661 9.92812 253.538 9.68197C253.415 9.27171 253.292 9.02555 252.758 9.02555C252.225 9.02555 251.733 9.02555 251.199 9.02555V10.9948H250.543V6.31786C250.666 6.31786 250.789 6.31786 251.076 6.31786C251.733 6.31786 252.389 6.31786 253.045 6.31786C253.702 6.31786 254.071 6.72812 254.235 7.22043C254.604 7.99991 254.317 8.49222 253.661 8.90248Z" fill="white"/>
</svg>
