<svg width="188" height="51" viewBox="0 0 188 51" fill="none" xmlns="http://www.w3.org/2000/svg">
<g clip-path="url(#clip0_2946_178)">
<path d="M71.336 19.2038C71.4513 19.6363 71.3072 19.8958 70.9612 20.0112L67.6452 20.9915C67.2415 21.1069 67.0397 20.9915 66.8955 20.5879C66.3765 18.8866 65.2808 17.9928 63.2335 17.9928C60.1194 17.9928 59.0526 19.8382 59.0526 22.3179V28.0271C59.0526 30.5069 60.0906 32.3523 63.2335 32.3523C65.7998 32.3523 67.155 31.1701 67.155 28.5461V27.7964H63.7814C63.4931 27.7964 63.32 27.6523 63.32 27.3063V24.1345C63.2912 23.9038 63.4642 23.6731 63.7237 23.6443C63.7526 23.6443 63.7814 23.6443 63.7814 23.6443H71.2783C71.5955 23.6443 71.7685 23.7885 71.7685 24.1056V28.8345C71.7685 33.3326 68.4526 36.7351 63.2912 36.7351C57.1783 36.7351 54.3237 33.102 54.3237 28.1425V22.1161C54.3237 17.1566 57.1783 13.5234 63.2912 13.5234C68.2219 13.5523 70.4421 16.378 71.336 19.2038ZM88.1464 24.8265V35.8989C88.1753 36.1296 87.9734 36.3314 87.7427 36.3603C87.7139 36.3603 87.7139 36.3603 87.6851 36.3603H84.3115C84.0808 36.3891 83.8501 36.2161 83.8213 35.9566C83.8213 35.9277 83.8213 35.8989 83.8213 35.8989V34.0823C82.8409 35.7259 81.082 36.7351 79.1501 36.7063C75.9495 36.7063 73.9023 34.659 73.9023 31.4872C73.9023 28.402 75.8342 26.5854 80.563 26.2394C81.5722 26.1529 82.6102 26.1529 83.6483 26.2106V24.9707C83.6483 23.3271 82.7832 22.6639 81.3127 22.6639C79.8133 22.6639 79.3808 23.2695 78.9771 24.221C78.8329 24.5958 78.6888 24.6535 78.3716 24.567L74.998 23.702C74.6519 23.6155 74.6231 23.4136 74.6808 23.1829C75.1421 20.7609 77.4489 18.9731 81.4857 18.9731C85.7532 19.002 88.1464 21.0492 88.1464 24.8265ZM83.6483 30.651V29.0363C82.7544 29.0075 81.8317 29.0363 80.9378 29.1228C79.2078 29.3247 78.3139 29.8725 78.3139 31.1701C78.3139 32.3523 79.1213 33.0155 80.4188 33.0155C81.9182 33.0155 83.1004 32.2081 83.6483 30.651ZM100.315 19.002C102.448 19.002 103.861 20.2707 104.524 22.0872C105.793 20.2418 107.321 19.002 109.455 19.002C112.425 19.002 114.126 21.3664 114.126 24.8842V35.8989C114.126 36.1872 113.867 36.3603 113.578 36.3603H110.061C109.743 36.3603 109.513 36.1872 109.513 35.8989V25.6915C109.513 24.1633 108.849 23.2406 107.638 23.2406C106.37 23.2406 105.447 24.2787 105.015 25.8645V35.8989C105.043 36.1296 104.842 36.3314 104.611 36.3603H104.582H100.776C100.488 36.3603 100.372 36.1872 100.372 35.8989V25.6915C100.372 24.1633 99.6802 23.2406 98.498 23.2406C97.2004 23.2406 96.2777 24.3363 95.874 25.9222V35.9277C95.9029 36.1584 95.7299 36.3603 95.4992 36.3891C95.4704 36.3891 95.4415 36.3891 95.4127 36.3891H91.6931C91.4624 36.4179 91.2605 36.2449 91.2317 36.0142C91.2317 35.9854 91.2317 35.9566 91.2317 35.9277V19.8382C91.2317 19.6075 91.4335 19.4056 91.6642 19.4056H91.6931H95.2685C95.4992 19.3768 95.701 19.5498 95.7299 19.8093V19.8382V21.7701C96.7102 20.3283 98.1808 19.002 100.315 19.002ZM133.416 19.3768C133.503 19.7805 133.388 20.0688 133.013 20.1842L129.754 21.1357C129.351 21.251 129.149 21.1069 129.005 20.732C128.543 19.2038 127.736 17.9639 125.487 17.9639C122.69 17.9639 121.796 19.8093 121.796 22.2891V27.9983C121.796 30.478 122.805 32.3234 125.487 32.3234C127.88 32.3234 128.803 30.9682 129.178 29.2958C129.264 28.921 129.524 28.748 129.927 28.8922L133.186 29.9302C133.561 30.0455 133.676 30.3339 133.589 30.7376C132.811 34.0535 130.418 36.7639 125.458 36.7639C119.864 36.7639 117.067 33.1308 117.067 28.1713V22.1449C117.067 17.1854 119.951 13.5523 125.458 13.5523C130.302 13.5523 132.58 16.1185 133.416 19.3768ZM149.765 24.8265V35.8989C149.794 36.1296 149.592 36.3314 149.362 36.3603C149.333 36.3603 149.333 36.3603 149.304 36.3603H145.93C145.7 36.3891 145.469 36.2161 145.44 35.9566C145.44 35.9277 145.44 35.8989 145.44 35.8989V34.0823C144.46 35.7259 142.701 36.7351 140.769 36.7063C137.569 36.7063 135.521 34.659 135.521 31.4872C135.521 28.402 137.453 26.5854 142.182 26.2394C143.191 26.1529 144.229 26.1529 145.267 26.2106V24.9707C145.267 23.3271 144.402 22.6639 142.932 22.6639C141.432 22.6639 141 23.2695 140.596 24.221C140.452 24.5958 140.308 24.6535 139.991 24.567L136.617 23.702C136.271 23.6155 136.242 23.4136 136.3 23.1829C136.761 20.7609 139.068 18.9731 143.105 18.9731C147.372 19.002 149.765 21.0492 149.765 24.8265ZM145.238 30.651V29.0363C144.345 29.0075 143.422 29.0363 142.528 29.1228C140.798 29.3247 139.904 29.8725 139.904 31.1701C139.904 32.3523 140.711 33.0155 142.009 33.0155C143.537 33.0155 144.691 32.2081 145.238 30.651ZM162.885 19.694V22.9811C162.885 23.3848 162.741 23.529 162.337 23.529H161.847C159.396 23.529 157.954 24.6247 157.464 26.4701V35.9277C157.493 36.1584 157.32 36.3603 157.089 36.3891H157.061H153.197C152.966 36.3891 152.793 36.1872 152.793 35.9566C152.793 35.9566 152.793 35.9566 152.793 35.9277V19.8093C152.793 19.5787 152.966 19.3768 153.168 19.3768C153.197 19.3768 153.226 19.3768 153.226 19.3768H156.715C157.089 19.3768 157.176 19.6075 157.176 19.867V22.1449C157.983 20.6455 159.483 19.175 162.107 19.175C162.77 19.175 162.885 19.2615 162.885 19.694ZM168.911 29.2958V29.9302C168.911 31.7179 169.834 32.9578 171.997 32.9578C174.102 32.9578 174.707 32.1504 175.255 31.1412C175.543 30.6799 175.659 30.6222 176.149 30.8241L178.571 32.0639C179.061 32.3234 179.09 32.5541 178.888 33.0155C177.85 35.3799 175.226 36.7351 171.997 36.7351C167.095 36.7351 164.5 33.8228 164.5 29.8437V25.9222C164.5 22.0584 166.922 19.0308 171.939 19.0308C176.726 19.0308 179.061 22.0584 179.061 25.8357V28.5461C179.061 29.0075 178.917 29.3247 178.254 29.3247L168.911 29.2958ZM168.911 25.6915V26.2682H174.822V25.6915C174.822 24.048 173.9 22.7504 171.881 22.7504C169.863 22.7504 168.911 24.048 168.911 25.6915Z" fill="#1A1A1A"/>
<path d="M27.2485 0.202148H6.66073C6.31471 0.202148 6.02637 0.490491 6.02637 0.836503V30.7666C6.02637 41.4353 14.6767 50.1144 25.3742 50.1144H27.2485C37.9172 50.1144 46.5675 41.4641 46.5675 30.7666V19.55C46.5963 8.85246 37.946 0.202148 27.2485 0.202148ZM40.3969 31.0837C40.3969 38.35 35.0337 43.8574 26.7294 43.8574C16.8681 43.8574 12.2546 38.004 12.2546 29.988V20.2709C12.2546 12.2549 16.8681 6.40153 26.7294 6.40153C34.7166 6.40153 38.3208 10.9574 39.7626 15.5132C39.9644 16.2052 39.7049 16.6089 39.157 16.8107L33.7939 18.3966C33.1595 18.5985 32.8135 18.3966 32.6116 17.7623C31.7754 15.023 29.9877 13.5525 26.7294 13.5525C21.6834 13.5525 19.9822 16.5224 19.9822 20.5304V29.7574C19.9822 33.7653 21.6546 36.7353 26.7294 36.7353C30.8816 36.7353 33.073 34.8034 33.073 30.5936V29.4114H27.5368C27.1043 29.4114 26.7871 29.1518 26.7871 28.6328V23.5291C26.7871 23.039 27.0754 22.7218 27.5368 22.7218H39.6184C40.1086 22.7218 40.3969 22.9813 40.3969 23.4715V31.0837Z" fill="#2E008B"/>
</g>
<defs>
<clipPath id="clip0_2946_178">
<rect width="188" height="50.4601" fill="white"/>
</clipPath>
</defs>
</svg>
