<svg width="138" height="52" viewBox="0 0 138 52" fill="none" xmlns="http://www.w3.org/2000/svg">
<path fill-rule="evenodd" clip-rule="evenodd" d="M5.04702 19.5556C5.04191 19.5505 5.03424 19.5453 5.02785 19.539C3.23295 17.7428 3.23295 14.8269 5.02785 13.0305C6.82529 11.2343 9.74123 11.2343 11.5376 13.0305C11.6936 13.1864 11.9135 13.4332 12.1781 13.7502C9.12144 14.9379 6.75506 17.0424 5.04702 19.5556ZM23.8204 13.7517C24.0863 13.4334 24.3049 13.1866 24.4608 13.0307C26.2583 11.2333 29.1729 11.2333 30.9706 13.0307C32.7668 14.8269 32.7668 17.7428 30.9706 19.5392C30.9642 19.5443 30.9591 19.5507 30.9527 19.5558C29.2435 17.0412 26.8784 14.9394 23.8204 13.7517ZM16.9771 40.2991C14.0457 40.1917 10.9903 39.6113 8.57928 38.361C5.68367 36.8576 3.68164 34.4184 3.68164 30.7418C3.68164 23.782 8.1319 14.7503 17.9998 14.7503C27.8678 14.7503 32.318 23.7823 32.318 30.7418C32.318 34.4184 30.3339 36.8566 27.4485 38.3597C25.0438 39.6138 21.9847 40.193 19.0226 40.3003V36.0203C19.5365 35.8017 19.975 35.4233 20.2664 34.9259L21.0578 33.5683C21.5321 32.7565 21.5346 31.7542 21.0667 30.9386C20.6001 30.1242 19.7308 29.6218 18.7912 29.6231H17.2085C16.2689 29.6218 15.3996 30.1242 14.933 30.9386C14.4651 31.7542 14.4676 32.7565 14.9419 33.5683L15.7333 34.9259C16.0247 35.4232 16.4645 35.8017 16.9772 36.0203L16.9771 40.2991ZM21.1767 28.0647C21.4566 29.0797 22.2518 29.9235 23.341 30.2162C24.9774 30.6547 26.6612 29.6831 27.0981 28.0468C27.3921 26.9563 27.0572 25.8466 26.3183 25.0962C25.9987 24.7728 25.7686 24.3739 25.6484 23.9367C25.3684 22.9203 24.5732 22.0766 23.4828 21.7838C21.8477 21.3454 20.1639 22.3182 19.7257 23.9533C19.4342 25.0438 19.7679 26.1547 20.5068 26.9039C20.8251 27.2273 21.0565 27.6261 21.1767 28.0647ZM23.1492 27.5213C22.9357 26.7466 22.5279 26.0397 21.9629 25.4682C21.7161 25.2164 21.6036 24.8469 21.7008 24.4826C21.8465 23.938 22.4078 23.6133 22.9536 23.7603C23.318 23.8562 23.5826 24.14 23.6772 24.4787C23.8894 25.2535 24.2985 25.9604 24.8623 26.5331C25.109 26.7824 25.2203 27.1531 25.1231 27.5175C24.9773 28.0621 24.4161 28.3868 23.8702 28.2411C23.5072 28.1426 23.2425 27.8614 23.1492 27.5213ZM9.68261 25.0962C8.94242 25.8466 8.60746 26.9563 8.90151 28.0467C9.33871 29.6831 11.0224 30.6547 12.6586 30.2162C13.7478 29.9234 14.543 29.0797 14.823 28.0646C14.9431 27.6262 15.1745 27.2273 15.4928 26.9038C16.233 26.1547 16.5654 25.0437 16.274 23.9533C15.8367 22.3182 14.1518 21.3453 12.5169 21.7838C11.4264 22.0766 10.6312 22.9203 10.3512 23.9366C10.2311 24.3738 10.0009 24.7727 9.68261 25.0962ZM11.1374 26.5331C11.7012 25.9604 12.1103 25.2534 12.3225 24.4787C12.4171 24.1399 12.6818 23.8561 13.0461 23.7602C13.592 23.6132 14.1532 23.9379 14.2989 24.4825C14.3961 24.8469 14.2836 25.2163 14.0369 25.4682C13.4718 26.0396 13.064 26.7466 12.8505 27.5213C12.7572 27.8614 12.4925 28.1439 12.1295 28.241C11.5836 28.3868 11.0224 28.0621 10.8766 27.5175C10.7795 27.1531 10.8907 26.7824 11.1374 26.5331ZM18 34.1818C17.7942 34.1818 17.605 34.0731 17.5002 33.8954L16.7088 32.5378C16.604 32.3588 16.604 32.1376 16.7076 31.9574C16.8098 31.7784 17.0016 31.6672 17.2087 31.6672H18.7913C18.9984 31.6672 19.1902 31.7784 19.2924 31.9574C19.396 32.1376 19.396 32.3588 19.2912 32.5378L18.4998 33.8954C18.395 34.0731 18.2058 34.1818 18 34.1818Z" fill="white"/>
<path d="M53 26.18C53.7067 26.18 54.2667 25.9333 54.68 25.44C55.0933 24.9467 55.3 24.2667 55.3 23.4C55.3 22.3467 55.0467 21.4933 54.54 20.84C54.0333 20.1733 53.2867 19.84 52.3 19.84C51.6467 19.84 51.0333 20.04 50.46 20.44V31.94L53.94 32.7L53.28 34H44.96V32.88L46.84 31.4V20.26L44.62 19.58L45.28 18.28H48.6C49.7867 18.28 50.9533 18.24 52.1 18.16C52.9533 18.1067 53.58 18.08 53.98 18.08C55.02 18.08 55.94 18.2867 56.74 18.7C57.54 19.1 58.16 19.6533 58.6 20.36C59.04 21.0667 59.26 21.8533 59.26 22.72C59.26 23.68 58.8933 24.58 58.16 25.42C57.4267 26.26 56.5 26.92 55.38 27.4C54.26 27.88 53.1667 28.0933 52.1 28.04L51.22 27.5L51.88 26.2H53V26.18ZM71.5563 34H66.9963V32.26L64.7363 34.04C64.4696 34.1467 64.1363 34.2 63.7363 34.2C62.4563 34.2 61.5296 33.8867 60.9563 33.26C60.3963 32.6333 60.1163 31.88 60.1163 31C60.1163 30.48 60.2763 29.9733 60.5963 29.48C60.9163 28.9733 61.3763 28.5067 61.9763 28.08H66.9963V27.74C66.9963 27.0067 66.7963 26.4667 66.3963 26.12C65.9963 25.7733 65.4629 25.6 64.7963 25.6C63.8629 25.6 62.6429 25.9667 61.1363 26.7L60.5363 25.56L63.3163 23.32C63.9963 23.12 64.7896 23.02 65.6963 23.02C67.1896 23.02 68.3429 23.36 69.1562 24.04C69.9829 24.72 70.3963 25.7067 70.3963 27V32L72.1963 32.7L71.5563 34ZM64.7563 31.52C65.4363 31.52 66.1829 31.24 66.9963 30.68V29.4H63.7763C63.6696 29.56 63.5896 29.7133 63.5363 29.86C63.4963 29.9933 63.4763 30.1467 63.4763 30.32C63.4763 30.6533 63.5896 30.9333 63.8163 31.16C64.0563 31.3867 64.3696 31.5 64.7563 31.5V31.52ZM86.437 34H81.897V27.6C81.897 26.9733 81.797 26.5333 81.597 26.28C81.4104 26.0133 81.077 25.88 80.597 25.88C79.8904 25.88 79.1904 26.1067 78.497 26.56V32.1L80.297 32.7L79.637 34H73.317V32.88L75.097 31.38V26.84L73.317 25.72V24.6L77.477 22.84L78.257 25.16L80.737 23.18C81.097 23.0733 81.5037 23.02 81.957 23.02C82.9704 23.02 83.777 23.3 84.377 23.86C84.9904 24.4067 85.297 25.1533 85.297 26.1V32.1L87.097 32.7L86.437 34ZM94.1198 34H87.7998V32.88L89.5798 31.38V20.44L87.7998 19.26V18.14L91.7198 16.54H92.9798V32.1L94.7798 32.7L94.1198 34ZM101.754 31.46C101.754 31.2067 101.58 30.9533 101.234 30.7C100.887 30.4333 100.354 30.1 99.6338 29.7C98.9271 29.3 98.3604 28.96 97.9338 28.68C97.5071 28.3867 97.1338 28.06 96.8138 27.7C96.5071 27.3267 96.3538 26.9267 96.3538 26.5C96.3538 26.02 96.5804 25.5067 97.0338 24.96C97.5004 24.4133 98.0671 23.9533 98.7338 23.58C99.4004 23.2067 100.014 23.02 100.574 23.02C101.254 23.02 102.047 23.1 102.954 23.26C103.874 23.4067 104.54 23.5733 104.954 23.76V27.1H103.694C103.334 26.4333 102.9 25.9133 102.394 25.54C101.9 25.1667 101.387 24.98 100.854 24.98C100.587 24.98 100.374 25.06 100.214 25.22C100.054 25.3667 99.9738 25.5467 99.9738 25.76C99.9738 26.04 100.147 26.3133 100.494 26.58C100.854 26.8467 101.42 27.2 102.194 27.64C103.22 28.2 104.007 28.7067 104.554 29.16C105.114 29.6133 105.394 30.1333 105.394 30.72C105.394 31.2133 105.154 31.7333 104.674 32.28C104.207 32.8133 103.627 33.2667 102.934 33.64C102.254 34.0133 101.627 34.2 101.054 34.2C100.32 34.2 99.4471 34.1267 98.4338 33.98C97.4338 33.82 96.7204 33.6467 96.2938 33.46V30H97.5538C97.9538 30.7067 98.4471 31.26 99.0338 31.66C99.6204 32.0467 100.2 32.24 100.774 32.24C101.067 32.24 101.3 32.1667 101.474 32.02C101.66 31.86 101.754 31.6733 101.754 31.46ZM113.046 34H106.726V32.88L108.506 31.38V20.44L106.726 19.26V18.14L110.646 16.54H111.906V32.1L113.706 32.7L113.046 34ZM121.7 23.02C122.686 23.02 123.566 23.2533 124.34 23.72C125.113 24.1733 125.713 24.8 126.14 25.6C126.58 26.4 126.8 27.2867 126.8 28.26C126.8 29.3133 126.46 30.3 125.78 31.22C125.1 32.1267 124.246 32.8533 123.22 33.4C122.206 33.9333 121.226 34.2 120.28 34.2C119.306 34.2 118.426 33.9733 117.64 33.52C116.866 33.0533 116.26 32.42 115.82 31.62C115.393 30.82 115.18 29.9333 115.18 28.96C115.18 27.9067 115.52 26.9267 116.2 26.02C116.88 25.1 117.726 24.3733 118.74 23.84C119.766 23.2933 120.753 23.02 121.7 23.02ZM120.54 25.34C119.98 25.34 119.553 25.5667 119.26 26.02C118.98 26.46 118.84 27.12 118.84 28C118.84 29.12 119.066 30.0533 119.52 30.8C119.973 31.5333 120.613 31.9 121.44 31.9C121.986 31.9 122.4 31.6733 122.68 31.22C122.973 30.7533 123.12 30.08 123.12 29.2C123.12 28.08 122.893 27.16 122.44 26.44C121.986 25.7067 121.353 25.34 120.54 25.34ZM135.545 34.04C135.092 34.1467 134.552 34.2 133.925 34.2C132.645 34.2 131.705 33.9133 131.105 33.34C130.519 32.7533 130.225 31.8533 130.225 30.64V25.14H128.065V24.08L132.365 19.4H133.625V23.82H137.225V25.14H133.625V30.5C133.625 31.42 134.145 31.88 135.185 31.88C135.452 31.88 135.712 31.84 135.965 31.76C136.232 31.6667 136.565 31.5133 136.965 31.3L137.565 32.44L135.545 34.04Z" fill="white"/>
</svg>
