<svg width="189" height="62" viewBox="0 0 189 62" fill="none" xmlns="http://www.w3.org/2000/svg">
<g filter="url(#filter0_ii_3173_204)">
<path fill-rule="evenodd" clip-rule="evenodd" d="M38.9845 21.8802C39.5264 21.3418 39.956 20.7011 40.2483 19.9953C40.5407 19.2895 40.69 18.5327 40.6875 17.7688V11.625C40.6875 10.0834 40.0751 8.605 38.9851 7.51494C37.895 6.42489 36.4166 5.8125 34.875 5.8125H27.125C25.5835 5.8125 24.105 6.42489 23.015 7.51494C21.9249 8.605 21.3125 10.0834 21.3125 11.625V17.7688C21.3101 18.5327 21.4594 19.2895 21.7517 19.9953C22.0441 20.7011 22.4737 21.3418 23.0156 21.8802L26.8906 25.7552C27.9806 26.8449 29.4588 27.457 31 27.457C32.5413 27.457 34.0195 26.8449 35.1095 25.7552L38.9845 21.8802ZM54.485 38.9851C53.395 40.0751 51.9165 40.6875 50.3749 40.6875H44.2311C43.4672 40.69 42.7104 40.5407 42.0047 40.2483C41.2989 39.956 40.6582 39.5264 40.1198 38.9845L36.2448 35.1095C35.1551 34.0195 34.5429 32.5413 34.5429 31C34.5429 29.4588 35.1551 27.9806 36.2448 26.8906L40.1198 23.0156C40.6582 22.4737 41.2989 22.0441 42.0047 21.7517C42.7104 21.4594 43.4672 21.3101 44.2311 21.3125H50.3749C51.9165 21.3125 53.395 21.9249 54.485 23.015C55.5751 24.105 56.1874 25.5835 56.1874 27.125V34.875C56.1874 36.4166 55.5751 37.895 54.485 38.9851ZM21.7517 42.0062C22.0441 41.3005 22.4737 40.6598 23.0156 40.1213L26.8906 36.2463C27.9806 35.1567 29.4588 34.5445 31 34.5445C32.5413 34.5445 34.0195 35.1567 35.1095 36.2463L38.9845 40.1213C39.5264 40.6598 39.956 41.3005 40.2483 42.0062C40.5407 42.712 40.69 43.4688 40.6875 44.2327V50.3765C40.6875 51.9181 40.0751 53.3965 38.9851 54.4866C37.895 55.5766 36.4166 56.189 34.875 56.189H27.125C25.5835 56.189 24.105 55.5766 23.015 54.4866C21.9249 53.3965 21.3125 51.9181 21.3125 50.3765V44.2327C21.3101 43.4688 21.4594 42.712 21.7517 42.0062ZM17.7688 40.6875H11.625C10.0834 40.6875 8.605 40.0751 7.51494 38.9851C6.42489 37.895 5.8125 36.4166 5.8125 34.875V27.125C5.8125 25.5835 6.42489 24.105 7.51494 23.015C8.605 21.9249 10.0834 21.3125 11.625 21.3125H17.7688C18.5327 21.3101 19.2895 21.4594 19.9953 21.7517C20.7011 22.0441 21.3418 22.4737 21.8802 23.0156L25.7552 26.8906C26.8449 27.9806 27.457 29.4588 27.457 31C27.457 32.5413 26.8449 34.0195 25.7552 35.1095L21.8802 38.9845C21.3418 39.5264 20.7011 39.956 19.9953 40.2483C19.2895 40.5407 18.5327 40.69 17.7688 40.6875Z" fill="url(#paint0_linear_3173_204)"/>
</g>
<path d="M77.48 24.96C77.9 25.6 78.48 25.9 79.18 26C76.92 26 74.66 26 72.4 26C73.12 25.9 73.7 25.6 74.12 24.96C74.12 23.26 74.12 21.54 74.12 19.82C72.76 17.7 69.68 11.6 67.02 11.22C68.88 11.22 70.74 11.22 72.62 11.22L76.02 17.72L78.72 11.98C78.32 11.54 77.8 11.3 77.22 11.22H81.96L77.48 19.82V24.96ZM87.5848 26.02C83.1248 26.02 80.9648 22.52 80.9648 18.94C80.9648 15.2 83.3248 11.38 87.8648 11.38C88.8648 11.38 89.8248 11.52 90.3648 12.3H90.3048C89.8248 12.3 86.2048 12.4 85.0248 15.48C84.6248 16.54 84.4448 17.5 84.4448 18.34C84.4448 20.92 86.0848 22.4 87.7648 22.4C89.0848 22.4 90.4048 21.48 90.9448 19.48C91.0648 19.04 91.1048 18.64 91.1048 18.24C91.1048 15.74 89.1448 13.98 89.1448 13.98C89.5248 13.88 89.9048 13.84 90.2448 13.84C92.9048 13.84 94.4648 16.46 94.4648 19.28C94.4648 22.52 92.3848 26.02 87.5848 26.02ZM100.205 26.02C98.5448 26.02 97.1448 25.52 96.4248 24.56C95.4648 23.32 95.2248 22.18 95.1848 21.3V12.48C94.7648 11.86 94.1648 11.54 93.4648 11.44H98.5448V20.24C98.6248 22.14 99.9248 22.86 101.425 22.86C102.045 22.86 102.725 22.72 103.345 22.5V12.48C102.925 11.86 102.345 11.54 101.645 11.44H106.705V25.68C106.705 25.68 106.105 25.4 104.945 25.4C104.325 25.4 103.585 25.46 102.665 25.7C101.805 25.92 100.985 26.02 100.205 26.02ZM119.131 26.22C115.871 26.22 113.111 22.34 111.891 20.4H110.771V25C111.171 25.6 111.751 25.88 112.411 25.98H107.411V12.42C106.991 11.78 106.411 11.48 105.711 11.36H114.351C116.771 11.36 118.751 13.4 118.751 15.88C118.751 17.98 117.291 19.9 115.391 20.46C116.131 22.32 118.931 25.04 120.591 26.08L119.631 26.18L119.131 26.22ZM112.151 19C113.851 19 115.251 17.8 115.251 16.06C115.251 14.3 113.871 12.88 112.151 12.88H110.771V19H112.151ZM140.174 26.04C137.374 26.04 134.374 25.86 132.294 24.42C131.034 23.54 129.754 21.4 129.754 18.82C129.774 12.76 133.994 11.36 137.354 11.36C139.254 11.36 140.914 11.82 141.334 12.12L141.874 14.48C140.734 13.94 139.574 13.7 138.514 13.7C138.234 13.7 137.954 13.72 137.674 13.76C134.474 14.16 132.874 16.38 132.874 18.54C132.874 20.74 134.534 22.84 137.814 22.84C138.074 22.84 138.334 22.82 138.614 22.8L138.594 19.6C138.554 19.52 138.694 18.58 137.594 18.58H141.954C141.954 20.48 141.894 22.36 141.894 24.26C142.014 24.94 142.334 25.6 142.954 26.02L140.174 26.04ZM158.701 26.02L151.381 26C152.121 25.6 152.341 24.98 152.341 24.28C152.341 23.64 152.141 22.96 152.001 22.34H146.461C146.321 22.78 145.961 24.4 145.961 25.34C145.961 25.72 146.021 26 146.201 26H141.961C143.061 25.88 147.741 15.16 147.741 12.02C147.741 11.76 147.721 11.54 147.641 11.4C147.721 11.38 148.061 11.24 148.581 11.24C149.441 11.24 150.761 11.64 152.041 13.7C153.661 16.32 156.401 24.88 158.701 26.02ZM151.481 20.4C150.861 18.5 150.121 16.58 149.421 14.72C148.861 16.06 147.941 18.36 147.181 20.4H151.481ZM171.523 26.7C171.523 26.7 168.803 26.38 167.243 24.8C165.063 22.6 163.263 19.02 161.903 16.3V26H157.703C158.403 25.9 158.983 25.6 159.403 25V12.4C158.983 11.8 158.403 11.5 157.703 11.38H160.183C160.483 11.38 161.683 11.54 163.703 14.02C164.983 15.6 166.263 17.76 167.283 19.68C168.283 17.76 169.563 15.6 170.843 14.02C172.863 11.54 174.083 11.38 174.383 11.38H176.843C176.163 11.5 175.563 11.8 175.143 12.4V25C175.563 25.6 176.163 25.9 176.843 26.02H172.663V16.3C172.163 17.2 169.243 20.82 169.203 22.72V22.78C169.203 24.7 170.903 26.38 171.523 26.7ZM187.688 26.02H175.848C176.548 25.92 177.128 25.62 177.548 25.02V12.4C177.128 11.78 176.548 11.48 175.848 11.38H187.688L188.328 13.78C187.988 13.16 186.268 13.02 184.528 13.02C183.028 13.02 181.528 13.12 180.908 13.12V16.28H184.728C185.368 16.12 185.808 15.78 185.908 15.22V19.48C185.828 18.92 185.328 18.6 184.648 18.42H180.908V22.82C181.408 22.82 182.568 22.86 183.868 22.86C186.008 22.86 188.508 22.74 188.888 22.08L187.688 26.02ZM73.4 49.06C73.04 49.06 72.7 49.04 72.38 49.02H67C67.7 48.92 68.3 48.6 68.72 47.98V35.48C68.3 34.86 67.7 34.54 67 34.44H72.46C72.72 34.42 72.98 34.42 73.26 34.42C74.84 34.42 76.64 34.74 78.2 35.76C79.92 36.88 80.76 39.24 80.76 41.62C80.76 43.98 79.94 46.38 78.34 47.62C76.92 48.72 75.06 49.06 73.4 49.06ZM72.06 46.68C72.36 46.68 72.66 46.66 72.96 46.64C76.12 46.24 77.52 44.12 77.52 41.96C77.52 39.38 75.56 36.72 72.22 36.72H72.06V46.68ZM91.5939 49.02H79.7539C80.4539 48.92 81.0339 48.62 81.4539 48.02V35.4C81.0339 34.78 80.4539 34.48 79.7539 34.38H91.5939L92.2339 36.78C91.8939 36.16 90.1739 36.02 88.4339 36.02C86.9339 36.02 85.4339 36.12 84.8139 36.12V39.28H88.6339C89.2739 39.12 89.7139 38.78 89.8139 38.22V42.48C89.7339 41.92 89.2339 41.6 88.5539 41.42H84.8139V45.82C85.3139 45.82 86.4739 45.86 87.7739 45.86C89.9139 45.86 92.4139 45.74 92.7939 45.08L91.5939 49.02ZM108.885 48.82H102.105C102.805 48.72 103.405 48.4 103.825 47.78V37.4C101.645 37.4 99.0052 37.5 98.6252 38.2L99.1852 36.34C98.8252 36.28 98.4452 36.24 98.1052 36.24C97.1652 36.24 96.3252 36.5 96.0452 37.2C95.9852 37.36 95.9452 37.52 95.9452 37.66C95.9452 38.48 96.9652 38.92 98.2052 39.52C100.225 40.46 102.285 41.66 102.345 44.08V44.18C102.345 47 99.8452 48.74 96.5652 48.76C95.0652 48.76 93.8852 48.42 92.4852 47.92L91.7852 45.18C91.8452 45.24 93.1052 45.74 94.3652 46.12C95.0052 46.32 95.7852 46.56 96.5252 46.56C96.9652 46.56 97.3852 46.48 97.7652 46.24C98.1852 45.98 98.4252 45.6 98.4252 45.06C98.4252 43.64 96.5452 43.04 95.4452 42.5C93.0652 41.32 92.0052 40.26 92.0052 38.24V38.02C92.0852 35.62 94.3452 34.24 97.0652 34.16H97.2452C98.1452 34.16 98.9452 34.3 99.7452 34.5L99.8252 34.24H111.165L112.365 38.2C111.985 37.5 109.365 37.4 107.165 37.4V47.78C107.585 48.4 108.185 48.72 108.885 48.82ZM117.237 49.02H110.457C111.157 48.92 111.757 48.6 112.177 47.98V35.42C111.757 34.8 111.157 34.48 110.457 34.38H117.237C116.537 34.48 115.937 34.8 115.517 35.42V47.98C115.937 48.6 116.537 48.92 117.237 49.02ZM132.658 50.66C126.898 50.66 122.638 43.72 120.418 39.32V48.8H116.238C116.918 48.7 117.498 48.4 117.918 47.8V35.16C117.498 34.56 116.918 34.26 116.238 34.16H118.038C121.598 34.16 124.758 41.74 126.458 44V35.16C126.038 34.56 125.458 34.26 124.778 34.16H130.618C129.938 34.26 129.358 34.56 128.938 35.14V46.9C130.718 43.6 133.238 37.26 133.238 34.96C133.238 34.68 133.198 34.46 133.118 34.32C133.198 34.3 133.538 34.16 134.058 34.16C134.918 34.16 136.258 34.56 137.518 36.6C139.138 39.22 141.878 47.78 144.198 48.94L136.878 48.92C137.598 48.52 137.818 47.88 137.818 47.18C137.818 46.54 137.638 45.86 137.498 45.26H131.958C131.538 46.48 131.298 47.36 131.298 48.06C131.298 49.18 131.898 49.84 133.358 50.62L132.658 50.66ZM136.958 43.3C136.358 41.4 135.598 39.5 134.898 37.62C134.358 38.96 133.418 41.26 132.658 43.3H136.958ZM151.615 49.02H144.835C145.535 48.92 146.135 48.6 146.555 47.98V37.6C144.375 37.6 141.735 37.7 141.355 38.4L142.555 34.44H153.895L155.095 38.4C154.715 37.7 152.095 37.6 149.895 37.6V47.98C150.315 48.6 150.915 48.92 151.615 49.02ZM160.87 49.02H154.09C154.79 48.92 155.39 48.6 155.81 47.98V35.42C155.39 34.8 154.79 34.48 154.09 34.38H160.87C160.17 34.48 159.57 34.8 159.15 35.42V47.98C159.57 48.6 160.17 48.92 160.87 49.02ZM166.491 49.02C162.031 49.02 159.871 45.52 159.871 41.94C159.871 38.2 162.231 34.38 166.771 34.38C167.771 34.38 168.731 34.52 169.271 35.3H169.211C168.731 35.3 165.111 35.4 163.931 38.48C163.531 39.54 163.351 40.5 163.351 41.34C163.351 43.92 164.991 45.4 166.671 45.4C167.991 45.4 169.311 44.48 169.851 42.48C169.971 42.04 170.011 41.64 170.011 41.24C170.011 38.74 168.051 36.98 168.051 36.98C168.431 36.88 168.811 36.84 169.151 36.84C171.811 36.84 173.371 39.46 173.371 42.28C173.371 45.52 171.291 49.02 166.491 49.02ZM186.171 49.92C182.231 49.36 179.031 44.46 176.551 39.54V49.02H172.371C173.071 48.92 173.651 48.62 174.071 48.02V35.38C173.651 34.78 173.071 34.48 172.371 34.38H174.191C177.731 34.38 180.891 41.92 182.591 44.2V35.42C182.171 34.8 181.571 34.48 180.871 34.38H186.811C186.111 34.48 185.511 34.8 185.091 35.42V48.44C185.091 49.14 186.171 49.92 186.171 49.92Z" fill="white"/>
<defs>
<filter id="filter0_ii_3173_204" x="3.8125" y="3.8125" width="54.375" height="54.377" filterUnits="userSpaceOnUse" color-interpolation-filters="sRGB">
<feFlood flood-opacity="0" result="BackgroundImageFix"/>
<feBlend mode="normal" in="SourceGraphic" in2="BackgroundImageFix" result="shape"/>
<feColorMatrix in="SourceAlpha" type="matrix" values="0 0 0 0 0 0 0 0 0 0 0 0 0 0 0 0 0 0 127 0" result="hardAlpha"/>
<feOffset dx="2" dy="2"/>
<feGaussianBlur stdDeviation="2"/>
<feComposite in2="hardAlpha" operator="arithmetic" k2="-1" k3="1"/>
<feColorMatrix type="matrix" values="0 0 0 0 1 0 0 0 0 1 0 0 0 0 1 0 0 0 0.4 0"/>
<feBlend mode="normal" in2="shape" result="effect1_innerShadow_3173_204"/>
<feColorMatrix in="SourceAlpha" type="matrix" values="0 0 0 0 0 0 0 0 0 0 0 0 0 0 0 0 0 0 127 0" result="hardAlpha"/>
<feOffset dx="-2" dy="-2"/>
<feGaussianBlur stdDeviation="1"/>
<feComposite in2="hardAlpha" operator="arithmetic" k2="-1" k3="1"/>
<feColorMatrix type="matrix" values="0 0 0 0 0 0 0 0 0 0 0 0 0 0 0 0 0 0 0.4 0"/>
<feBlend mode="normal" in2="effect1_innerShadow_3173_204" result="effect2_innerShadow_3173_204"/>
</filter>
<linearGradient id="paint0_linear_3173_204" x1="-1.9375" y1="-4.52083" x2="65.875" y2="65.875" gradientUnits="userSpaceOnUse">
<stop offset="0.163596" stop-color="#BD00FF"/>
<stop offset="1" stop-color="#00E0FF"/>
</linearGradient>
</defs>
</svg>
